<svg width="2168" height="2168" viewBox="0 0 2168 2168" fill="none" xmlns="http://www.w3.org/2000/svg">
<rect width="2168" height="2168" rx="1073" fill="white"/>
<path d="M274.199 1215.6H308.379C311.96 1252.71 319.121 1283.63 329.863 1308.37C340.605 1333.11 353.789 1352.8 369.414 1367.45C385.365 1382.1 403.431 1392.52 423.613 1398.7C444.121 1404.56 465.768 1407.49 488.555 1407.49C515.898 1407.49 539.173 1404.07 558.379 1397.24C577.91 1390.4 593.861 1380.96 606.23 1368.92C618.926 1356.55 628.04 1341.9 633.574 1324.97C639.434 1307.72 642.363 1288.84 642.363 1268.33C642.363 1242.94 638.132 1222.11 629.668 1205.83C621.204 1189.23 609.323 1175.23 594.023 1163.84C579.049 1152.12 560.983 1142.03 539.824 1133.57C518.665 1125.1 495.391 1116.31 470 1107.2C444.609 1098.08 420.358 1088.48 397.246 1078.39C374.46 1068.3 354.277 1055.77 336.699 1040.79C319.121 1025.82 305.124 1007.59 294.707 986.105C284.616 964.296 279.57 937.277 279.57 905.051C279.57 874.777 284.453 847.108 294.219 822.043C303.984 796.978 318.47 775.656 337.676 758.078C356.882 740.174 380.645 726.34 408.965 716.574C437.611 706.809 470.814 701.926 508.574 701.926C523.548 701.926 539.01 702.74 554.961 704.367C570.911 705.669 586.699 707.785 602.324 710.715C618.275 713.645 633.9 717.225 649.199 721.457C664.499 725.363 678.984 729.758 692.656 734.641L698.516 911.887H664.336C661.406 876.73 654.896 848.085 644.805 825.949C634.714 803.814 622.344 786.561 607.695 774.191C593.372 761.496 577.259 752.87 559.355 748.312C541.777 743.43 523.711 740.988 505.156 740.988C480.417 740.988 458.932 744.081 440.703 750.266C422.474 756.125 407.337 764.751 395.293 776.145C383.249 787.212 374.134 800.884 367.949 817.16C362.09 833.111 359.16 851.177 359.16 871.359C359.16 895.448 363.392 915.467 371.855 931.418C380.319 947.368 392.201 961.203 407.5 972.922C423.125 984.315 441.68 994.569 463.164 1003.68C484.974 1012.47 508.9 1021.75 534.941 1031.52C558.704 1040.63 581.979 1050.4 604.766 1060.81C627.878 1070.9 648.385 1083.76 666.289 1099.39C684.518 1114.69 699.167 1133.73 710.234 1156.52C721.302 1178.98 726.836 1206.97 726.836 1240.5C726.836 1273.05 721.139 1302.02 709.746 1327.41C698.678 1352.8 682.565 1374.13 661.406 1391.38C640.573 1408.63 615.02 1421.82 584.746 1430.93C554.473 1440.04 520.293 1444.6 482.207 1444.6C465.605 1444.6 448.353 1443.79 430.449 1442.16C412.871 1440.53 395.293 1438.09 377.715 1434.84C360.462 1431.58 343.535 1427.84 326.934 1423.61C310.332 1419.37 294.87 1414.49 280.547 1408.96L274.199 1215.6Z" fill="black"/>
<path d="M1249.96 1215.6L1243.12 1408.96C1227.5 1414.49 1210.57 1419.54 1192.34 1424.09C1174.44 1428.33 1156.21 1431.91 1137.65 1434.84C1119.1 1438.09 1100.71 1440.53 1082.48 1442.16C1064.57 1443.79 1047.81 1444.6 1032.18 1444.6C982.379 1444.6 937.457 1436.14 897.418 1419.21C857.704 1402.28 823.85 1378.2 795.855 1346.95C768.186 1315.37 746.865 1277.12 731.891 1232.2C717.242 1187.28 709.918 1136.66 709.918 1080.34C709.918 1022.73 717.73 970.643 733.355 924.094C748.98 877.544 771.279 837.831 800.25 804.953C829.221 771.75 864.215 746.359 905.23 728.781C946.572 710.878 992.633 701.926 1043.41 701.926C1057.74 701.926 1072.87 702.74 1088.82 704.367C1104.77 705.669 1120.89 707.785 1137.16 710.715C1153.77 713.319 1170.04 716.574 1185.99 720.48C1202.27 724.387 1217.89 728.781 1232.87 733.664L1238.73 911.887H1204.55C1201.62 876.405 1195.11 847.596 1185.02 825.461C1175.25 803 1162.88 785.585 1147.91 773.215C1132.93 760.845 1116.01 752.382 1097.12 747.824C1078.24 743.267 1058.23 740.988 1037.07 740.988C1015.58 740.988 995.237 742.941 976.031 746.848C956.826 750.754 938.922 757.59 922.32 767.355C906.044 777.121 891.233 790.142 877.887 806.418C864.866 822.694 853.798 843.365 844.684 868.43C835.569 893.495 828.408 923.28 823.199 957.785C818.316 991.965 815.875 1031.84 815.875 1077.41C815.875 1122.66 818.316 1162.21 823.199 1196.07C828.082 1229.6 834.918 1258.57 843.707 1282.98C852.822 1307.39 863.727 1327.58 876.422 1343.53C889.443 1359.15 903.766 1371.68 919.391 1381.12C935.341 1390.24 952.594 1396.59 971.148 1400.17C989.703 1403.75 1009.23 1405.54 1029.74 1405.54C1054.48 1405.54 1077.27 1402.77 1098.1 1397.24C1119.26 1391.38 1137.82 1381.29 1153.77 1366.96C1170.04 1352.64 1183.39 1333.27 1193.8 1308.86C1204.55 1284.45 1211.87 1253.36 1215.78 1215.6H1249.96Z" fill="black"/>
<path d="M1762.17 930.685C1754.36 906.774 1744.06 885.349 1731.28 866.409C1718.73 847.233 1703.7 830.898 1686.18 817.404C1668.89 803.909 1649.24 793.611 1627.23 786.509C1605.21 779.407 1581.06 775.855 1554.78 775.855C1511.7 775.855 1472.52 786.982 1437.24 809.236C1401.97 831.49 1373.91 864.279 1353.08 907.603C1332.25 950.927 1321.83 1004.08 1321.83 1067.05C1321.83 1130.02 1332.36 1183.17 1353.43 1226.49C1374.5 1269.82 1403.03 1302.61 1439.02 1324.86C1475 1347.11 1515.48 1358.24 1560.47 1358.24C1602.13 1358.24 1638.83 1349.36 1670.55 1331.61C1702.51 1313.62 1727.37 1288.28 1745.12 1255.61C1763.12 1222.71 1772.11 1184 1772.11 1139.49L1799.1 1145.17H1580.35V1067.05H1857.34V1145.17C1857.34 1205.07 1844.56 1257.15 1818.99 1301.42C1793.66 1345.69 1758.62 1380.02 1713.87 1404.41C1669.37 1428.55 1618.23 1440.63 1560.47 1440.63C1496.07 1440.63 1439.49 1425.48 1390.72 1395.17C1342.19 1364.87 1304.31 1321.78 1277.09 1265.91C1250.1 1210.04 1236.6 1143.75 1236.6 1067.05C1236.6 1009.52 1244.3 957.792 1259.68 911.864C1275.31 865.699 1297.33 826.4 1325.74 793.966C1354.14 761.533 1387.76 736.675 1426.59 719.392C1465.41 702.11 1508.15 693.469 1554.78 693.469C1593.14 693.469 1628.88 699.269 1662.03 710.87C1695.41 722.233 1725.12 738.45 1751.16 759.52C1777.44 780.354 1799.34 805.33 1816.86 834.449C1834.38 863.332 1846.45 895.41 1853.08 930.685H1762.17Z" fill="black"/>
</svg>
