<svg width="106" height="106" viewBox="0 0 106 106" fill="none" xmlns="http://www.w3.org/2000/svg">
<path d="M70.3851 65.8673C70.2214 65.8672 70.0613 65.8186 69.9253 65.7275C69.7892 65.6365 69.6831 65.5072 69.6205 65.3559C69.5579 65.2046 69.5415 65.0382 69.5735 64.8776C69.6054 64.717 69.6843 64.5695 69.8 64.4537L97.0323 37.2179C96.5859 36.5467 96.3468 35.7581 96.3468 34.9342C96.3468 34.1102 96.5857 33.3216 97.0323 32.6504L75.8375 11.4531C74.4595 12.3653 72.6479 12.3653 71.2699 11.4531L63.916 18.8062C63.8391 18.8831 63.7479 18.944 63.6474 18.9856C63.547 19.0272 63.4393 19.0486 63.3306 19.0486C63.2219 19.0486 63.1143 19.0272 63.0139 18.9856C62.9134 18.944 62.8222 18.883 62.7453 18.8061C62.6685 18.7292 62.6075 18.638 62.5659 18.5375C62.5243 18.4371 62.5029 18.3295 62.5029 18.2208C62.5029 18.1121 62.5244 18.0044 62.566 17.904C62.6076 17.8036 62.6686 17.7123 62.7454 17.6354L70.6248 9.75563C70.7802 9.60058 70.9907 9.51342 71.2101 9.51327C71.4296 9.51311 71.6402 9.59997 71.7958 9.75481C72.7664 10.7237 74.3417 10.7237 75.312 9.75481C75.4676 9.59992 75.6782 9.51303 75.8977 9.51318C76.1172 9.51334 76.3277 9.60053 76.483 9.75563L98.7306 32.0069C98.8858 32.1622 98.973 32.3728 98.973 32.5924C98.973 32.812 98.8858 33.0226 98.7306 33.1779C98.2614 33.6479 98.0026 34.2712 98.0026 34.9344C98.0026 35.5975 98.2614 36.2217 98.7306 36.6908C98.8858 36.8461 98.973 37.0567 98.973 37.2763C98.973 37.4959 98.8858 37.7065 98.7306 37.8618L70.9706 65.6247C70.8938 65.7017 70.8026 65.7628 70.7021 65.8045C70.6016 65.8461 70.4939 65.8675 70.3851 65.8673Z" fill="black"/>
<path d="M70.3848 70.55C70.2211 70.5499 70.0611 70.5012 69.925 70.4102C69.7889 70.3192 69.6829 70.1898 69.6202 70.0385C69.5576 69.8873 69.5413 69.7208 69.5732 69.5602C69.6052 69.3997 69.684 69.2522 69.7998 69.1364L103.999 34.9346L73.5518 4.48671L59.2319 18.8064C59.0755 18.9562 58.8667 19.0387 58.6502 19.0363C58.4337 19.034 58.2268 18.9469 58.0737 18.7939C57.9206 18.6408 57.8335 18.4339 57.8311 18.2174C57.8287 18.0009 57.9112 17.7921 58.0609 17.6357L72.9663 2.73026C73.1216 2.57501 73.3322 2.48779 73.5518 2.48779C73.7714 2.48779 73.982 2.57501 74.1373 2.73026L105.756 34.3493C105.833 34.4262 105.894 34.5174 105.936 34.6179C105.977 34.7183 105.999 34.826 105.999 34.9347C105.999 35.0434 105.977 35.1511 105.936 35.2515C105.894 35.352 105.833 35.4432 105.756 35.5201L70.9703 70.3073C70.8935 70.3843 70.8023 70.4454 70.7018 70.4871C70.6013 70.5287 70.4936 70.5501 70.3848 70.55Z" fill="black"/>
<path d="M68.9181 27.5657C68.4603 27.5657 68.0819 27.1953 68.0819 26.7376C68.0819 26.2798 68.4442 25.9095 68.9003 25.9095H68.9181C69.3742 25.9095 69.7462 26.2798 69.7462 26.7376C69.7462 27.1953 69.3742 27.5657 68.9181 27.5657ZM71.2596 25.2238C70.8019 25.2238 70.4234 24.8534 70.4234 24.3956C70.4234 23.9379 70.7857 23.5675 71.2418 23.5675H71.2596C71.7157 23.5675 72.0877 23.9379 72.0877 24.3956C72.0877 24.8534 71.7157 25.2238 71.2596 25.2238ZM73.6017 22.8818C73.144 22.8818 72.7655 22.5115 72.7655 22.0537C72.7655 21.5962 73.1279 21.2256 73.5839 21.2256H73.6017C74.0578 21.2256 74.4299 21.596 74.4299 22.0537C74.4299 22.5115 74.0578 22.8818 73.6017 22.8818ZM73.5516 48.6444C73.3879 48.6443 73.2279 48.5957 73.0918 48.5047C72.9557 48.4137 72.8496 48.2844 72.7869 48.1332C72.7243 47.9819 72.7079 47.8155 72.7398 47.6549C72.7717 47.4943 72.8505 47.3468 72.9662 47.231L87.0209 33.1779C87.0973 33.0988 87.1887 33.0357 87.2897 32.9923C87.3907 32.9489 87.4994 32.9261 87.6094 32.9251C87.7193 32.9242 87.8284 32.9451 87.9301 32.9868C88.0319 33.0284 88.1244 33.0899 88.2021 33.1676C88.2799 33.2454 88.3414 33.3379 88.383 33.4396C88.4247 33.5414 88.4456 33.6505 88.4446 33.7604C88.4437 33.8704 88.4208 33.979 88.3774 34.0801C88.334 34.1811 88.271 34.2725 88.1919 34.3489L74.1371 48.4017C74.0603 48.4787 73.9691 48.5398 73.8686 48.5815C73.7681 48.6231 73.6604 48.6445 73.5516 48.6444ZM71.2095 43.9591C71.1007 43.9592 70.993 43.9378 70.8926 43.8962C70.7921 43.8545 70.7008 43.7934 70.624 43.7164L67.244 40.3362C67.1649 40.2598 67.1018 40.1685 67.0584 40.0674C67.015 39.9664 66.9922 39.8577 66.9912 39.7478C66.9903 39.6378 67.0112 39.5288 67.0529 39.427C67.0945 39.3252 67.156 39.2327 67.2338 39.155C67.3115 39.0772 67.404 39.0157 67.5057 38.9741C67.6075 38.9325 67.7166 38.9115 67.8265 38.9125C67.9365 38.9134 68.0452 38.9363 68.1462 38.9797C68.2472 39.0231 68.3386 39.0862 68.415 39.1653L71.795 42.5455C71.9108 42.6613 71.9896 42.8088 72.0215 42.9694C72.0535 43.13 72.0371 43.2965 71.9744 43.4478C71.9118 43.5991 71.8056 43.7284 71.6695 43.8194C71.5333 43.9104 71.3733 43.959 71.2095 43.9591ZM74.7226 39.4176C74.2875 39.4188 73.8564 39.3337 73.4544 39.1671C73.0524 39.0005 72.6875 38.7559 72.3807 38.4473L70.0387 36.1053C68.7485 34.8139 68.7485 32.7129 70.0387 31.4215C71.2907 30.1698 73.4709 30.1698 74.7228 31.4215L77.0646 33.7634C78.3552 35.0549 78.3552 37.1558 77.0646 38.4473C76.7577 38.7558 76.3928 39.0004 75.9908 39.167C75.5888 39.3336 75.1577 39.4188 74.7226 39.4176ZM72.3805 32.1071C72.1629 32.1067 71.9474 32.1493 71.7464 32.2326C71.5455 32.3159 71.363 32.4382 71.2095 32.5924C70.5642 33.2377 70.5642 34.2891 71.2095 34.9344L73.5514 37.2763C74.179 37.9022 75.2659 37.9022 75.8934 37.2763C76.5387 36.631 76.5387 35.5797 75.8934 34.9344L73.5514 32.5924C73.398 32.4382 73.2155 32.3159 73.0145 32.2326C72.8135 32.1493 72.598 32.1067 72.3805 32.1071ZM80.5789 33.5628C80.1435 33.5641 79.7121 33.479 79.3098 33.3124C78.9075 33.1458 78.5423 32.901 78.2353 32.5922L75.8936 30.2503C75.5849 29.9434 75.3402 29.5783 75.1736 29.1762C75.007 28.774 74.9218 28.3428 74.923 27.9075C74.923 27.0229 75.2675 26.1908 75.8936 25.5656C77.1451 24.3164 79.3303 24.3147 80.5789 25.5672L82.9194 27.9083C84.2096 29.1998 84.2096 31.3008 82.9194 32.5922C82.613 32.9009 82.2483 33.1457 81.8465 33.3123C81.4447 33.4789 81.0139 33.5641 80.5789 33.5628ZM78.2368 26.2525C77.7935 26.2525 77.378 26.4248 77.0641 26.7378C76.7503 27.0508 76.5793 27.4657 76.5793 27.9079C76.5793 28.3504 76.7519 28.7667 77.0641 29.0797L79.4061 31.4217C80.0336 32.0484 81.1255 32.0492 81.7466 31.4225C82.3935 30.7764 82.3935 29.725 81.7482 29.0797L79.4063 26.7378C79.2532 26.5835 79.071 26.4611 78.8702 26.3778C78.6694 26.2945 78.4541 26.2519 78.2368 26.2525Z" fill="black"/>
<path d="M70.0384 45.1315C69.8747 45.1313 69.7147 45.0827 69.5786 44.9917C69.4425 44.9006 69.3365 44.7713 69.2738 44.62C69.2112 44.4687 69.1949 44.3023 69.2268 44.1417C69.2588 43.9811 69.3376 43.8336 69.4534 43.7178L71.7951 41.3743C71.8715 41.2952 71.9629 41.2321 72.0639 41.1887C72.1649 41.1453 72.2736 41.1224 72.3836 41.1215C72.4935 41.1205 72.6026 41.1415 72.7043 41.1831C72.8061 41.2247 72.8986 41.2862 72.9763 41.364C73.0541 41.4417 73.1156 41.5342 73.1572 41.636C73.1988 41.7378 73.2198 41.8468 73.2188 41.9568C73.2179 42.0667 73.195 42.1754 73.1516 42.2764C73.1082 42.3774 73.0452 42.4688 72.9661 42.5452L70.6241 44.8888C70.5473 44.9658 70.456 45.0269 70.3555 45.0685C70.255 45.1102 70.1472 45.1315 70.0384 45.1315ZM62.2853 96.8876H5.62024C4.07082 96.8876 2.63133 96.2794 1.56719 95.1748C0.502845 94.072 -0.0517922 92.6114 0.00493439 91.0636L3.31557 26.4562C3.42882 23.2903 6.11049 20.7051 9.29008 20.7051H58.6138C61.7936 20.7051 64.4734 23.2903 64.5914 26.4676L67.8992 91.0524C67.9573 92.6116 67.4027 94.0722 66.3384 95.175C65.2738 96.2796 63.8343 96.8876 62.2853 96.8876ZM9.29008 22.3609C6.99017 22.3609 5.05256 24.2306 4.97016 26.528L1.65932 91.1363C1.6204 92.2184 2.01024 93.2486 2.76073 94.0266C3.50956 94.803 4.52505 95.2314 5.62024 95.2314H62.2853C63.3799 95.2314 64.3956 94.803 65.1446 94.0266C65.8951 93.2486 66.285 92.2184 66.2444 91.1249L62.937 26.54C62.8513 24.2306 60.9121 22.3607 58.6136 22.3607H9.29008V22.3609Z" fill="black"/>
<path d="M62.2853 101.856H5.62024C4.07082 101.856 2.63133 101.248 1.56719 100.144C0.502845 99.0407 -0.0517922 97.5801 0.00493439 96.0325C0.0210828 95.5765 0.343016 95.2255 0.8637 95.2351C1.08318 95.2436 1.29032 95.3388 1.43978 95.4998C1.58924 95.6607 1.66885 95.8743 1.66118 96.0938C1.62081 97.1872 2.01065 98.2173 2.76093 98.9954C3.50977 99.7717 4.52525 100.2 5.62045 100.2H62.2855C63.3801 100.2 64.3958 99.7717 65.1448 98.9954C65.8953 98.2173 66.2852 97.1874 66.2446 96.0938C66.2369 95.8743 66.3164 95.6607 66.4659 95.4997C66.6154 95.3387 66.8226 95.2436 67.0421 95.2351H67.0727C67.2871 95.2351 67.4931 95.3182 67.6475 95.4669C67.8019 95.6156 67.8927 95.8183 67.9008 96.0325C67.9574 97.5803 67.4027 99.0407 66.3384 100.144C65.2738 101.248 63.8343 101.856 62.2853 101.856Z" fill="black"/>
<path d="M0.833008 96.8913C0.375469 96.8913 0.00488292 96.5209 0.00488292 96.0632V91.4002C0.00482847 91.2915 0.0262129 91.1838 0.0678133 91.0833C0.109414 90.9828 0.170414 90.8915 0.247326 90.8146C0.324238 90.7377 0.415553 90.6767 0.516049 90.6352C0.616545 90.5936 0.724251 90.5722 0.833008 90.5723C1.29075 90.5723 1.66113 90.9425 1.66113 91.4002V96.063C1.66121 96.1718 1.63985 96.2795 1.59827 96.38C1.55668 96.4806 1.49569 96.5719 1.41878 96.6488C1.34186 96.7258 1.25054 96.7868 1.15003 96.8284C1.04952 96.87 0.941792 96.8914 0.833008 96.8913ZM67.0727 96.8913C66.6149 96.8913 66.2445 96.5209 66.2445 96.0632V91.4133C66.2445 90.9555 66.6149 90.5854 67.0727 90.5854C67.5304 90.5854 67.9008 90.9555 67.9008 91.4133V96.0632C67.9008 96.5209 67.5304 96.8913 67.0727 96.8913ZM44.0709 53.8282H37.6792C36.3093 53.8282 35.195 52.7138 35.195 51.3438V46.3753C35.195 45.0054 36.3093 43.8911 37.6792 43.8911H44.0094C45.3762 43.8911 46.4969 45.0031 46.5066 46.3697L46.5422 51.3382C46.5453 51.6646 46.4832 51.9882 46.3596 52.2902C46.236 52.5922 46.0535 52.8666 45.8226 53.0972C45.5938 53.3294 45.3211 53.5136 45.0203 53.6391C44.7196 53.7646 44.3968 53.8289 44.0709 53.8282ZM37.6792 45.5474C37.2231 45.5474 36.8511 45.9186 36.8511 46.3755V51.3438C36.8511 51.8007 37.2229 52.172 37.6792 52.172H44.0709C44.2876 52.172 44.493 52.0862 44.6483 51.9301C44.8035 51.774 44.8876 51.5678 44.8859 51.3496L44.8503 46.3811C44.848 46.1594 44.7584 45.9476 44.601 45.7916C44.4436 45.6355 44.231 45.5478 44.0094 45.5474H37.6792ZM57.4492 53.8282H50.6954C49.3288 53.8282 48.208 52.7162 48.1982 51.3496L48.1626 46.3811C48.1596 46.0548 48.2217 45.7311 48.3453 45.4291C48.4689 45.127 48.6515 44.8527 48.8825 44.6221C49.1111 44.39 49.3838 44.2057 49.6846 44.0802C49.9853 43.9547 50.3081 43.8904 50.634 43.8911H57.2068C58.5653 43.8911 59.7009 44.995 59.7396 46.3519L59.8851 51.3196C59.8953 51.6459 59.8397 51.971 59.7216 52.2754C59.6035 52.5798 59.4254 52.8573 59.1978 53.0914C58.9709 53.3255 58.6991 53.5115 58.3986 53.6381C58.0982 53.7647 57.7753 53.8294 57.4492 53.8282ZM50.634 45.5474C50.5265 45.5474 50.4201 45.5687 50.321 45.6103C50.2218 45.6518 50.1319 45.7126 50.0565 45.7892C49.9802 45.8653 49.9199 45.9558 49.8791 46.0556C49.8383 46.1553 49.8178 46.2622 49.8189 46.3699L49.8545 51.3384C49.8568 51.5601 49.9464 51.7719 50.1038 51.9279C50.2612 52.084 50.4738 52.1717 50.6954 52.1722H57.4494C57.5538 52.1728 57.6572 52.1523 57.7534 52.1118C57.8495 52.0714 57.9365 52.0118 58.009 51.9368C58.0825 51.8618 58.1399 51.7727 58.1777 51.6748C58.2155 51.5769 58.2329 51.4723 58.2289 51.3674L58.0834 46.3997C58.0705 45.9372 57.6693 45.5474 57.2068 45.5474H50.634ZM18.1416 53.8282H11.3877C10.7165 53.8282 10.0954 53.563 9.6426 53.0819C9.18982 52.6015 8.96168 51.9682 9.0006 51.2987L9.29003 46.3246C9.36932 44.9822 10.5256 43.8913 11.8696 43.8913H18.4425C19.1106 43.8913 19.7314 44.1543 20.1908 44.6313C20.65 45.1085 20.8896 45.7374 20.8651 46.4047L20.6856 51.3755C20.6339 52.7285 19.4938 53.8282 18.1416 53.8282ZM11.8696 45.5474C11.3957 45.5474 10.9703 45.9478 10.9428 46.4208L10.6533 51.395C10.6419 51.6053 10.7098 51.8001 10.8475 51.9457C10.985 52.092 11.1775 52.1722 11.3877 52.1722H18.1416C18.6058 52.1722 19.0135 51.7798 19.0296 51.3151L19.2091 46.3442C19.2172 46.13 19.1428 45.9302 18.9988 45.7805C18.9266 45.706 18.8401 45.6469 18.7444 45.6069C18.6488 45.5669 18.546 45.5467 18.4423 45.5476H11.8696V45.5474ZM31.0544 53.8282H24.7662C24.0981 53.8282 23.4756 53.5653 23.0162 53.0883C22.557 52.6111 22.3175 51.9811 22.3419 51.3148L22.523 46.344C22.5748 44.9911 23.7149 43.8913 25.067 43.8913H31.0544C32.4243 43.8913 33.5388 45.0056 33.5388 46.3755V51.3438C33.5388 52.7138 32.4245 53.8282 31.0544 53.8282ZM25.0673 45.5474C24.6031 45.5474 24.1954 45.9397 24.1793 46.4047L23.9981 51.3755C23.9901 51.5898 24.0644 51.7896 24.2085 51.939C24.2808 52.0137 24.3676 52.0728 24.4635 52.1128C24.5594 52.1529 24.6625 52.173 24.7664 52.172H31.0544C31.5041 52.172 31.8825 51.7927 31.8825 51.3438V46.3753C31.8825 45.9264 31.5041 45.5472 31.0544 45.5472H25.0673V45.5474ZM17.3653 77.0143H10.1457C9.47449 77.0143 8.8534 76.749 8.40062 76.2685C7.94764 75.7866 7.7197 75.1541 7.75841 74.4847L8.04784 69.5098C8.12713 68.1691 9.28361 67.0774 10.6274 67.0774H17.6661C18.3342 67.0774 18.9553 67.3395 19.4145 67.8165C19.8737 68.2937 20.1132 68.9243 20.0888 69.5905L19.9093 74.5607C19.8577 75.9145 18.7176 77.0143 17.3653 77.0143ZM10.6274 68.7334C10.1536 68.7334 9.72831 69.133 9.70078 69.6069L9.41135 74.5818C9.39996 74.7905 9.46787 74.986 9.60534 75.1315C9.7428 75.2771 9.93534 75.358 10.1455 75.358H17.3653C17.8294 75.358 18.2371 74.9651 18.2532 74.5009L18.4327 69.5307C18.4408 69.3156 18.3665 69.1166 18.2224 68.9661C18.1502 68.8916 18.0637 68.8326 17.968 68.7925C17.8724 68.7525 17.7696 68.7323 17.6659 68.7332H10.6274V68.7334ZM44.2261 77.0143H37.6792C36.3093 77.0143 35.195 75.8998 35.195 74.5301V69.5615C35.195 68.1918 36.3093 67.0774 37.6792 67.0774H44.1646C45.5315 67.0774 46.6521 68.1885 46.6619 69.5551L46.6975 74.5237C46.7005 74.8501 46.6384 75.1738 46.5148 75.476C46.3912 75.7781 46.2086 76.0526 45.9776 76.2832C45.7488 76.5153 45.4761 76.6994 45.1754 76.8249C44.8747 76.9504 44.552 77.0148 44.2261 77.0143ZM37.6792 68.7334C37.2231 68.7334 36.8511 69.1055 36.8511 69.5615V74.5301C36.8515 74.7496 36.9389 74.9599 37.0941 75.1151C37.2493 75.2703 37.4597 75.3576 37.6792 75.358H44.2261C44.3337 75.3581 44.4402 75.3366 44.5393 75.295C44.6385 75.2533 44.7283 75.1922 44.8035 75.1154C44.8797 75.0396 44.94 74.9493 44.9808 74.8499C45.0217 74.7505 45.0422 74.644 45.0412 74.5365L45.0056 69.568C45.0036 69.3461 44.9141 69.1341 44.7567 68.9778C44.5992 68.8216 44.3865 68.7337 44.1646 68.7334H37.6792ZM31.0544 77.0143H23.9899C23.322 77.0143 22.6994 76.7507 22.24 76.2735C21.7806 75.7979 21.5413 75.1671 21.5655 74.5009L21.7467 69.529C21.7984 68.1771 22.9386 67.0772 24.2907 67.0772H31.0544C32.4243 67.0772 33.5388 68.1916 33.5388 69.5613V74.5299C33.5388 75.8998 32.4245 77.0143 31.0544 77.0143ZM24.2909 68.7334C23.8267 68.7334 23.4193 69.1264 23.4029 69.5907L23.2218 74.5626C23.2169 74.6657 23.233 74.7688 23.2691 74.8656C23.3053 74.9623 23.3608 75.0507 23.4321 75.1253C23.5045 75.1999 23.5912 75.2591 23.6872 75.2991C23.7831 75.3391 23.8861 75.3593 23.9901 75.3582H31.0544C31.5041 75.3582 31.8825 74.9798 31.8825 74.5303V69.5618C31.8825 69.1121 31.5041 68.7336 31.0544 68.7336H24.2909V68.7334ZM9.51818 88.6024C8.84864 88.6024 8.23065 88.3389 7.77787 87.8586C7.32489 87.3782 7.0986 86.7458 7.13732 86.0777L7.42675 81.1029C7.50604 79.762 8.66252 78.6703 10.0064 78.6703H17.2779C17.946 78.6703 18.5671 78.9324 19.0263 79.4094C19.4855 79.8866 19.725 80.5174 19.7006 81.1837L19.5228 86.11C19.471 87.4621 18.3309 88.5649 16.9802 88.5699L9.52749 88.6022L9.51818 88.6024ZM10.0066 80.3265C9.53267 80.3265 9.10743 80.7261 9.07989 81.2L8.79025 86.1748C8.77887 86.3835 8.84677 86.5774 8.98279 86.7215C9.11861 86.8671 9.30949 86.9464 9.51818 86.9464V87.7745L9.52149 86.9464L16.9742 86.9141C17.4415 86.9124 17.8508 86.5162 17.8669 86.0503L18.0448 81.124C18.0528 80.9089 17.9785 80.71 17.8344 80.5595C17.7623 80.485 17.6757 80.4259 17.5801 80.3859C17.4844 80.3458 17.3816 80.3257 17.2779 80.3265H10.0066ZM58.3809 88.6072L50.9282 88.6008C49.5599 88.5991 48.4407 87.4865 48.4309 86.1214L48.2401 57.9732C48.2372 57.647 48.2993 57.3236 48.4229 57.0217C48.5465 56.7199 48.7291 56.4457 48.9599 56.2153C49.1887 55.9832 49.4614 55.7991 49.7621 55.6736C50.0628 55.5481 50.3855 55.4837 50.7114 55.4842H57.5171C58.8757 55.4842 60.0096 56.589 60.0468 57.9459L60.8199 86.1004C60.8299 86.4269 60.7738 86.7521 60.6551 87.0564C60.5365 87.3608 60.3576 87.638 60.1292 87.8716C59.9022 88.1054 59.6304 88.291 59.33 88.4174C59.0296 88.5438 58.7068 88.6083 58.3809 88.6072ZM50.7116 57.1405C50.604 57.1404 50.4976 57.1619 50.3984 57.2036C50.2992 57.2452 50.2094 57.3063 50.1342 57.3831C50.058 57.4589 49.9977 57.5492 49.9569 57.6486C49.9161 57.748 49.8955 57.8545 49.8965 57.962L50.0874 86.1102C50.0907 86.5696 50.469 86.9431 50.93 86.9447L58.3811 86.9511C58.5945 86.9511 58.7951 86.8671 58.9423 86.7149C59.016 86.64 59.0736 86.5509 59.1117 86.4531C59.1498 86.3552 59.1676 86.2505 59.1638 86.1456L58.3908 57.991C58.3794 57.5301 57.9784 57.1405 57.5173 57.1405H50.7116ZM44.3038 88.6072H37.6792C36.3093 88.6072 35.195 87.4929 35.195 86.123V81.1547C35.195 79.7847 36.3093 78.6703 37.6792 78.6703H44.2423C45.6091 78.6703 46.7298 79.7814 46.7395 81.1483L46.7751 86.1166C46.7782 86.4431 46.7161 86.7668 46.5925 87.069C46.4689 87.3712 46.2863 87.6457 46.0553 87.8764C45.8264 88.1083 45.5537 88.2924 45.253 88.4179C44.9523 88.5434 44.6296 88.6077 44.3038 88.6072ZM37.6792 80.3265C37.2231 80.3265 36.8511 80.6986 36.8511 81.1547V86.123C36.8511 86.5791 37.2229 86.9511 37.6792 86.9511H44.3038C44.4113 86.9512 44.5178 86.9298 44.617 86.8881C44.7161 86.8464 44.8059 86.7854 44.8812 86.7085C44.9574 86.6327 45.0177 86.5424 45.0585 86.443C45.0993 86.3435 45.1198 86.2369 45.1189 86.1294L45.0832 81.1611C45.0812 80.9393 44.9918 80.7272 44.8343 80.5709C44.6769 80.4147 44.4641 80.3269 44.2423 80.3265H37.6792ZM31.0544 88.6072H23.6017C22.9336 88.6072 22.3111 88.3436 21.8516 87.8666C21.3922 87.3911 21.1529 86.7603 21.1771 86.094L21.3583 81.1224C21.41 79.7703 22.5504 78.6703 23.9023 78.6703H31.0544C32.4243 78.6703 33.5388 79.7847 33.5388 81.1547V86.123C33.5388 87.4929 32.4245 88.6072 31.0544 88.6072ZM23.9027 80.3265C23.4385 80.3265 23.0311 80.7195 23.0147 81.1839L22.8336 86.1555C22.8287 86.2587 22.8448 86.3618 22.881 86.4586C22.9171 86.5553 22.9726 86.6437 23.0439 86.7184C23.1163 86.7931 23.2031 86.8522 23.299 86.8922C23.3949 86.9323 23.498 86.9524 23.6019 86.9513H31.0544C31.5041 86.9513 31.8825 86.5729 31.8825 86.1232V81.1549C31.8825 80.7052 31.5041 80.3268 31.0544 80.3268H23.9027V80.3265ZM44.1485 65.4211H37.6792C36.3093 65.4211 35.195 64.3067 35.195 62.937V57.9684C35.195 56.5987 36.3093 55.4842 37.6792 55.4842H44.087C45.4538 55.4842 46.5745 56.5954 46.5842 57.962L46.6198 62.9305C46.6229 63.2569 46.5608 63.5807 46.4373 63.8828C46.3137 64.1849 46.1311 64.4594 45.9002 64.6901C45.6713 64.9221 45.3986 65.1062 45.0979 65.2318C44.7971 65.3573 44.4744 65.4216 44.1485 65.4211ZM37.6792 57.1405C37.2231 57.1405 36.8511 57.5125 36.8511 57.9684V62.937C36.8511 63.3931 37.2229 63.7651 37.6792 63.7651H44.1485C44.2561 63.7651 44.3625 63.7437 44.4617 63.702C44.5608 63.6604 44.6507 63.5993 44.7259 63.5224C44.8021 63.4466 44.8624 63.3563 44.9032 63.2569C44.944 63.1575 44.9646 63.0509 44.9636 62.9434L44.928 57.9748C44.926 57.753 44.8365 57.541 44.679 57.3848C44.5216 57.2285 44.3088 57.1408 44.087 57.1405H37.6792Z" fill="black"/>
<path d="M17.7534 65.4213H10.7665C10.0953 65.4213 9.47443 65.1561 9.02144 64.6755C8.56846 64.1936 8.34052 63.5613 8.37923 62.8918L8.66866 57.9168C8.74795 56.576 9.90422 55.4844 11.2483 55.4844H18.054C18.7221 55.4844 19.3432 55.7465 19.8024 56.2235C20.2618 56.7007 20.5011 57.3315 20.4767 57.9975L20.2972 62.9677C20.2458 64.3215 19.1057 65.4213 17.7534 65.4213ZM11.2485 57.1406C10.7746 57.1406 10.3493 57.5402 10.3218 58.0139L10.0324 62.9888C10.021 63.1975 10.0889 63.3932 10.2266 63.5387C10.364 63.6843 10.5564 63.7652 10.7667 63.7652H17.7536C18.2178 63.7652 18.6254 63.3723 18.6416 62.9079L18.8211 57.9377C18.8291 57.7226 18.7548 57.5238 18.6107 57.3733C18.5386 57.2988 18.452 57.2398 18.3564 57.1997C18.2607 57.1597 18.1579 57.1395 18.0542 57.1404H11.2485V57.1406Z" fill="black"/>
<path d="M31.0545 65.421H24.3782C23.7101 65.421 23.0875 65.1574 22.6283 64.6802C22.1689 64.2047 21.9296 63.574 21.9538 62.9076L22.135 57.9358C22.1867 56.5838 23.3269 55.4839 24.679 55.4839H31.0545C32.4244 55.4839 33.5389 56.5983 33.5389 57.9681V62.9366C33.5389 64.3065 32.4246 65.421 31.0545 65.421ZM24.6792 57.1403C24.215 57.1403 23.8074 57.5333 23.7912 57.9975L23.6101 62.9693C23.6052 63.0725 23.6213 63.1756 23.6574 63.2724C23.6936 63.3691 23.749 63.4575 23.8204 63.5322C23.8928 63.6069 23.9795 63.666 24.0755 63.706C24.1714 63.7461 24.2744 63.7662 24.3784 63.7651H31.0545C31.5042 63.7651 31.8826 63.3867 31.8826 62.937V57.9685C31.8826 57.519 31.5042 57.1406 31.0545 57.1406H24.6792V57.1403Z" fill="black"/>
<path d="M58.3589 39.3371H9.74841C9.63766 39.3371 9.52805 39.3148 9.42608 39.2716C9.32411 39.2284 9.23187 39.1651 9.15485 39.0855C9.07737 39.0061 9.01668 38.9119 8.97638 38.8086C8.93608 38.7052 8.917 38.5948 8.92028 38.4839L9.23083 28.1329C9.23755 27.9178 9.32774 27.7137 9.48231 27.5638C9.63687 27.414 9.84368 27.3301 10.059 27.3301H58.0871C58.303 27.3298 58.5105 27.414 58.6652 27.5646C58.8199 27.7153 58.9097 27.9204 58.9152 28.1363L59.1868 38.4872C59.1894 38.5977 59.1699 38.7077 59.1296 38.8107C59.0894 38.9137 59.0291 39.0076 58.9523 39.0872C58.8749 39.1661 58.7826 39.2288 58.6807 39.2717C58.5788 39.3146 58.4695 39.3368 58.3589 39.3371ZM10.6022 37.6808H57.508L57.2799 28.9859H10.8627L10.6022 37.6808Z" fill="black"/>
<path d="M96.0592 73.7018C91.9492 73.7018 88.6064 70.3589 88.6064 66.2491C88.6064 62.1393 91.9492 58.7964 96.0592 58.7964C100.169 58.7964 103.511 62.1393 103.511 66.2491C103.511 70.3589 100.169 73.7018 96.0592 73.7018ZM96.0592 60.4526C92.863 60.4526 90.2623 63.0534 90.2623 66.2491C90.2623 69.4448 92.863 72.0456 96.0592 72.0456C99.2549 72.0456 101.856 69.4448 101.856 66.2491C101.856 63.0534 99.2549 60.4526 96.0592 60.4526Z" fill="black"/>
<path d="M96.0592 77.0142C91.9492 77.0142 88.6064 73.6713 88.6064 69.5615C88.6064 69.1038 88.9768 68.7334 89.4346 68.7334C89.5433 68.7334 89.651 68.7548 89.7514 68.7964C89.8519 68.838 89.9432 68.899 90.0201 68.9759C90.0969 69.0528 90.1579 69.1441 90.1994 69.2446C90.241 69.3451 90.2624 69.4528 90.2623 69.5615C90.2623 72.7575 92.863 75.358 96.0592 75.358C99.2549 75.358 101.856 72.7573 101.856 69.5615C101.856 69.1038 102.226 68.7334 102.684 68.7334C102.792 68.7334 102.9 68.7548 103.001 68.7964C103.101 68.838 103.192 68.899 103.269 68.9759C103.346 69.0528 103.407 69.1441 103.449 69.2446C103.49 69.3451 103.512 69.4528 103.511 69.5615C103.512 73.6713 100.169 77.0142 96.0592 77.0142Z" fill="black"/>
<path d="M89.4346 70.3894C88.9768 70.3894 88.6064 70.0191 88.6064 69.5613V66.249C88.6064 65.7913 88.9768 65.4209 89.4346 65.4209C89.5433 65.4209 89.651 65.4423 89.7514 65.4839C89.8519 65.5255 89.9432 65.5865 90.0201 65.6634C90.0969 65.7403 90.1579 65.8316 90.1994 65.9321C90.241 66.0326 90.2624 66.1403 90.2623 66.249V69.5613C90.2623 70.0191 89.8919 70.3894 89.4346 70.3894Z" fill="black"/>
<path d="M102.684 70.3894C102.226 70.3894 101.855 70.0191 101.855 69.5613V66.249C101.855 65.7913 102.226 65.4209 102.684 65.4209C102.792 65.4209 102.9 65.4423 103 65.4839C103.101 65.5255 103.192 65.5865 103.269 65.6634C103.346 65.7403 103.407 65.8316 103.448 65.9321C103.49 66.0326 103.511 66.1403 103.511 66.249V69.5613C103.511 69.6701 103.49 69.7777 103.448 69.8782C103.407 69.9787 103.346 70.07 103.269 70.1469C103.192 70.2238 103.101 70.2848 103 70.3264C102.9 70.3681 102.792 70.3895 102.684 70.3894Z" fill="black"/>
<path d="M96.0586 68.7335C95.6008 68.7335 95.2305 68.3631 95.2305 67.9056V64.5931C95.2304 64.4843 95.2518 64.3766 95.2934 64.2761C95.335 64.1756 95.396 64.0843 95.4729 64.0074C95.5498 63.9305 95.6411 63.8696 95.7416 63.828C95.8421 63.7864 95.9498 63.7651 96.0586 63.7651C96.1673 63.7651 96.275 63.7865 96.3754 63.8281C96.4759 63.8697 96.5671 63.9307 96.644 64.0076C96.7209 64.0845 96.7818 64.1757 96.8234 64.2762C96.865 64.3767 96.8864 64.4843 96.8863 64.5931V67.9056C96.8864 68.0143 96.865 68.1219 96.8234 68.2224C96.7818 68.3229 96.7209 68.4141 96.644 68.491C96.5671 68.5679 96.4759 68.6289 96.3754 68.6705C96.275 68.7121 96.1673 68.7335 96.0586 68.7335Z" fill="black"/>
<path d="M86.1212 100.2C80.1857 100.2 75.3564 95.3705 75.3564 89.4349C75.3564 83.4993 80.1857 78.6699 86.1212 78.6699C92.0568 78.6699 96.886 83.4993 96.886 89.4349C96.886 95.3705 92.0568 100.2 86.1212 100.2ZM86.1212 80.3262C81.0995 80.3262 77.0123 84.413 77.0123 89.4349C77.0123 94.4569 81.0995 98.5437 86.1212 98.5437C91.143 98.5437 95.2302 94.4569 95.2302 89.4349C95.2302 84.413 91.143 80.3262 86.1212 80.3262Z" fill="black"/>
<path d="M86.1212 103.513C80.1857 103.513 75.3564 98.6831 75.3564 92.7476C75.3564 92.2898 75.7268 91.9194 76.1846 91.9194C76.2933 91.9194 76.401 91.9408 76.5014 91.9824C76.6019 92.024 76.6932 92.085 76.7701 92.1619C76.8469 92.2389 76.9079 92.3302 76.9495 92.4306C76.991 92.5311 77.0124 92.6388 77.0123 92.7476C77.0123 97.7693 81.0995 101.856 86.1212 101.856C91.143 101.856 95.2302 97.7693 95.2302 92.7476C95.2302 92.2898 95.6006 91.9194 96.0583 91.9194C96.1671 91.9194 96.2747 91.9408 96.3752 91.9824C96.4757 92.024 96.5669 92.085 96.6438 92.1619C96.7207 92.2389 96.7816 92.3302 96.8232 92.4306C96.8648 92.5311 96.8861 92.6388 96.886 92.7476C96.886 98.6831 92.0568 103.513 86.1212 103.513Z" fill="black"/>
<path d="M86.1221 93.5758C85.6643 93.5758 85.2939 93.2054 85.2939 92.7476V86.123C85.2939 85.6653 85.6643 85.2949 86.1221 85.2949C86.5798 85.2949 86.9502 85.6653 86.9502 86.123V92.7476C86.9502 93.2054 86.5798 93.5758 86.1221 93.5758Z" fill="black"/>
<path d="M96.0586 93.5755C95.6008 93.5755 95.2305 93.2051 95.2305 92.7474V89.4351C95.2305 88.9773 95.6008 88.6069 96.0586 88.6069C96.1673 88.6069 96.275 88.6283 96.3755 88.6699C96.4759 88.7115 96.5672 88.7725 96.6441 88.8494C96.721 88.9264 96.7819 89.0177 96.8235 89.1181C96.865 89.2186 96.8864 89.3263 96.8863 89.4351V92.7474C96.8863 93.2051 96.5159 93.5755 96.0586 93.5755Z" fill="black"/>
<path d="M76.1846 93.576C75.7268 93.576 75.3564 93.2056 75.3564 92.7478V89.4355C75.3564 88.9778 75.7268 88.6074 76.1846 88.6074C76.2933 88.6074 76.401 88.6288 76.5014 88.6704C76.6019 88.712 76.6932 88.773 76.7701 88.8499C76.8469 88.9268 76.9079 89.0181 76.9495 89.1186C76.991 89.2191 77.0124 89.3268 77.0123 89.4355V92.7478C77.0123 93.2056 76.6419 93.576 76.1846 93.576Z" fill="black"/>
</svg>
