<svg width="82" height="102" viewBox="0 0 82 102" fill="none" xmlns="http://www.w3.org/2000/svg">
<path d="M63.7776 51V92.7273C63.7776 95.1866 62.8177 97.5451 61.109 99.2841C59.4004 101.023 57.0829 102 54.6665 102H9.11109C6.69468 102 4.37724 101.023 2.66858 99.2841C0.959915 97.5451 0 95.1866 0 92.7273V9.27273C0 6.81345 0.959915 4.45489 2.66858 2.71592C4.37724 0.976945 6.69468 0 9.11109 0H31.8888C33.097 0 34.2557 0.488472 35.1101 1.35796C35.9644 2.22745 36.4444 3.40672 36.4444 4.63636C36.4444 5.866 35.9644 7.04528 35.1101 7.91477C34.2557 8.78426 33.097 9.27273 31.8888 9.27273H9.11109V92.7273H54.6665V51C54.6665 49.7704 55.1465 48.5911 56.0008 47.7216C56.8551 46.8521 58.0139 46.3636 59.2221 46.3636C60.4303 46.3636 61.589 46.8521 62.4433 47.7216C63.2977 48.5911 63.7776 49.7704 63.7776 51ZM31.8888 78.8182C30.9878 78.8182 30.107 79.0901 29.3579 79.5995C28.6087 80.109 28.0248 80.8331 27.68 81.6803C27.3352 82.5275 27.245 83.4597 27.4208 84.3591C27.5966 85.2584 28.0304 86.0845 28.6676 86.7329C29.3047 87.3814 30.1164 87.8229 31.0001 88.0018C31.8838 88.1807 32.7997 88.0889 33.6321 87.738C34.4646 87.3871 35.176 86.7928 35.6766 86.0304C36.1772 85.2679 36.4444 84.3715 36.4444 83.4545C36.4444 82.2249 35.9644 81.0456 35.1101 80.1761C34.2557 79.3066 33.097 78.8182 31.8888 78.8182ZM81.9998 16.6909V20.4C81.9998 20.8919 81.8078 21.3636 81.4661 21.7114C81.1243 22.0592 80.6609 22.2545 80.1776 22.2545H77.3167C76.9388 22.2631 76.5721 22.3863 76.2637 22.6086C75.9552 22.8308 75.719 23.1419 75.5856 23.5017V23.5295C75.4311 23.8801 75.3832 24.2696 75.4482 24.6481C75.5132 25.0265 75.6879 25.3765 75.95 25.653L77.9727 27.7115C78.1456 27.8842 78.2829 28.0902 78.3766 28.3174C78.4703 28.5447 78.5186 28.7887 78.5186 29.0352C78.5186 29.2817 78.4703 29.5257 78.3766 29.753C78.2829 29.9803 78.1456 30.1863 77.9727 30.3589L75.417 32.9599C75.2474 33.1358 75.045 33.2756 74.8217 33.371C74.5984 33.4664 74.3586 33.5155 74.1164 33.5155C73.8742 33.5155 73.6345 33.4664 73.4112 33.371C73.1878 33.2756 72.9854 33.1358 72.8158 32.9599L70.7932 30.9014C70.5215 30.6346 70.1776 30.4567 69.8058 30.3906C69.4339 30.3245 69.0511 30.3732 68.7067 30.5305H68.6794C68.3251 30.6652 68.0188 30.9053 67.8003 31.2194C67.5817 31.5336 67.4611 31.9074 67.4539 32.2923V35.2364C67.4539 35.7282 67.262 36.1999 66.9202 36.5477C66.5785 36.8955 66.115 37.0909 65.6317 37.0909H61.9554C61.4721 37.0909 61.0086 36.8955 60.6669 36.5477C60.3252 36.1999 60.1332 35.7282 60.1332 35.2364V32.3062C60.1261 31.9213 60.0054 31.5475 59.7869 31.2333C59.5683 30.9192 59.262 30.6791 58.9077 30.5444H58.8804C58.536 30.3871 58.1532 30.3384 57.7814 30.4045C57.4095 30.4706 57.0656 30.6485 56.794 30.9153L54.7713 32.9738C54.6017 33.1497 54.3993 33.2895 54.176 33.3849C53.9527 33.4803 53.7129 33.5294 53.4707 33.5294C53.2285 33.5294 52.9887 33.4803 52.7654 33.3849C52.5421 33.2895 52.3397 33.1497 52.1701 32.9738L49.6144 30.3728C49.4416 30.2002 49.3042 29.9942 49.2105 29.7669C49.1168 29.5396 49.0685 29.2956 49.0685 29.0491C49.0685 28.8026 49.1168 28.5586 49.2105 28.3314C49.3042 28.1041 49.4416 27.8981 49.6144 27.7255L51.6371 25.6669C51.8992 25.3904 52.074 25.0404 52.1389 24.662C52.2039 24.2836 52.156 23.894 52.0015 23.5435V23.5156C51.8681 23.1558 51.6319 22.8447 51.3235 22.6225C51.015 22.4003 50.6483 22.277 50.2704 22.2685H47.3777C47.1384 22.2685 46.9014 22.2205 46.6803 22.1273C46.4592 22.0341 46.2584 21.8975 46.0892 21.7253C45.9199 21.5531 45.7857 21.3486 45.6941 21.1236C45.6026 20.8986 45.5554 20.6574 45.5554 20.4139V16.6909C45.5554 16.1991 45.7474 15.7273 46.0892 15.3795C46.4309 15.0318 46.8944 14.8364 47.3777 14.8364H50.2385C50.6171 14.8281 50.9845 14.7044 51.2931 14.4812C51.6018 14.258 51.8374 13.9456 51.9697 13.5845V13.5614C52.1241 13.2108 52.172 12.8213 52.107 12.4428C52.0421 12.0644 51.8673 11.7144 51.6052 11.4379L49.5825 9.37936C49.4097 9.20672 49.2724 9.00074 49.1786 8.77346C49.0849 8.54619 49.0366 8.30217 49.0366 8.05568C49.0366 7.80919 49.0849 7.56518 49.1786 7.3379C49.2724 7.11062 49.4097 6.90464 49.5825 6.732L52.1382 4.131C52.3078 3.95507 52.5102 3.81532 52.7335 3.71992C52.9569 3.62452 53.1966 3.57538 53.4388 3.57538C53.681 3.57538 53.9208 3.62452 54.1441 3.71992C54.3674 3.81532 54.5698 3.95507 54.7394 4.131L56.7621 6.18955C57.0336 6.45663 57.3778 6.6344 57.7499 6.69972C58.122 6.76505 58.5048 6.7149 58.8485 6.55582H58.8758C59.2294 6.41999 59.5351 6.17967 59.7534 5.86572C59.9718 5.55178 60.0929 5.17855 60.1013 4.794V1.85455C60.1013 1.36269 60.2933 0.890979 60.635 0.543184C60.9767 0.195389 61.4402 0 61.9235 0H65.5998C66.0831 0 66.5466 0.195389 66.8883 0.543184C67.2301 0.890979 67.422 1.36269 67.422 1.85455V4.76618C67.4304 5.15073 67.5516 5.52396 67.7699 5.8379C67.9883 6.15185 68.2939 6.39217 68.6475 6.528H68.6748C69.0186 6.68709 69.4014 6.73723 69.7735 6.6719C70.1456 6.60658 70.4898 6.42882 70.7613 6.16173L72.7839 4.10318C72.9536 3.92725 73.1559 3.7875 73.3793 3.6921C73.6026 3.5967 73.8423 3.54756 74.0845 3.54756C74.3267 3.54756 74.5665 3.5967 74.7898 3.6921C75.0131 3.7875 75.2155 3.92725 75.3851 4.10318L77.9408 6.70418C78.1137 6.87682 78.251 7.0828 78.3447 7.31008C78.4385 7.53736 78.4867 7.78137 78.4867 8.02786C78.4867 8.27435 78.4385 8.51837 78.3447 8.74565C78.251 8.97292 78.1137 9.1789 77.9408 9.35155L75.9181 11.4101C75.656 11.6866 75.4813 12.0366 75.4163 12.415C75.3514 12.7934 75.3992 13.183 75.5537 13.5335V13.5567C75.6859 13.9178 75.9216 14.2302 76.2302 14.4534C76.5389 14.6766 76.9063 14.8003 77.2848 14.8085H80.1776C80.4192 14.8085 80.6584 14.8574 80.8813 14.9523C81.1042 15.0473 81.3063 15.1864 81.4758 15.3615C81.6454 15.5367 81.7791 15.7444 81.869 15.9727C81.959 16.2009 82.0034 16.445 81.9998 16.6909ZM69.2443 18.5455C69.2443 17.4451 68.9237 16.3694 68.323 15.4545C67.7223 14.5395 66.8685 13.8264 65.8696 13.4053C64.8707 12.9842 63.7716 12.874 62.7111 13.0887C61.6507 13.3034 60.6766 13.8333 59.9121 14.6114C59.1476 15.3895 58.6269 16.3808 58.416 17.46C58.2051 18.5393 58.3133 19.6579 58.7271 20.6746C59.1408 21.6912 59.8415 22.5601 60.7405 23.1714C61.6395 23.7828 62.6964 24.1091 63.7776 24.1091C65.2275 24.1091 66.6179 23.5229 67.6431 22.4795C68.6683 21.4362 69.2443 20.021 69.2443 18.5455Z" fill="black"/>
</svg>
