<svg width="102" height="102" viewBox="0 0 102 102" fill="none" xmlns="http://www.w3.org/2000/svg">
<path d="M84.4869 3.52484H40.3163V3.41469C40.3163 1.53176 38.7845 0 36.9016 0H26.3271C24.4442 0 22.9124 1.53176 22.9124 3.41469V3.52484H17.515C14.6603 3.52484 12.3379 5.84727 12.3379 8.70194V96.8229C12.3379 99.6776 14.6603 102 17.515 102H84.4869C87.3416 102 89.664 99.6776 89.664 96.8229V8.70194C89.664 5.84727 87.3416 3.52484 84.4869 3.52484ZM26.2169 3.41469C26.2169 3.35388 26.2665 3.30454 26.3271 3.30454H36.9016C36.9622 3.30454 37.0118 3.35388 37.0118 3.41469V23.6528L32.3532 21.3235C32.1208 21.2072 31.8675 21.149 31.6144 21.149C31.3612 21.149 31.1079 21.2072 30.8755 21.3235L26.2169 23.6528V3.41469ZM86.3595 96.8229C86.3595 97.8555 85.5195 98.6955 84.4869 98.6955H17.515C16.4824 98.6955 15.6424 97.8555 15.6424 96.8229V8.70194C15.6424 7.66939 16.4824 6.82937 17.515 6.82937H22.9124V26.3261C22.9124 26.8987 23.2089 27.4305 23.696 27.7317C24.1836 28.033 24.7918 28.0601 25.3038 27.8039L31.6146 24.6485L37.9254 27.8039C38.1587 27.9205 38.4118 27.9784 38.6642 27.9784C38.9663 27.9784 39.2674 27.8956 39.5329 27.7317C40.02 27.4305 40.3165 26.8987 40.3165 26.3261V6.82937H84.4872C85.5197 6.82937 86.3597 7.66939 86.3597 8.70194V96.8229H86.3595Z" fill="black"/>
<path d="M75.5583 63.2063C75.5572 63.1909 75.5568 63.1753 75.5552 63.1601C75.5517 63.127 75.5458 63.0942 75.5403 63.0614C75.5365 63.0387 75.5334 63.016 75.5288 62.9937C75.5242 62.9719 75.5176 62.9501 75.5121 62.9283C75.5037 62.8957 75.4958 62.8629 75.4854 62.8309C75.4808 62.8168 75.475 62.8027 75.47 62.7886C75.4563 62.7499 75.4422 62.7115 75.4259 62.6743C75.4246 62.6714 75.4239 62.6686 75.4226 62.6657L68.5153 47.1245V45.6024H70.3878C71.3005 45.6024 72.0401 44.8626 72.0401 43.9501C72.0401 43.0376 71.3005 42.2979 70.3878 42.2979H52.6535V40.0433C54.7001 39.352 56.1783 37.4151 56.1783 35.138C56.1783 32.2834 53.8559 29.9609 51.0012 29.9609C48.1465 29.9609 45.8241 32.2834 45.8241 35.138C45.8241 37.4151 47.3023 39.352 49.3489 40.0433V42.2979H31.6146C30.7019 42.2979 29.9623 43.0376 29.9623 43.9501C29.9623 44.8626 30.7019 45.6024 31.6146 45.6024H33.4872V47.1245L26.5798 62.6657C26.5785 62.6686 26.5776 62.6717 26.5765 62.6745C26.5602 62.7118 26.5461 62.7499 26.5327 62.7884C26.5276 62.8025 26.5217 62.8166 26.517 62.8309C26.5067 62.8629 26.4987 62.8955 26.4904 62.9283C26.4846 62.9501 26.4783 62.9719 26.4736 62.9937C26.469 63.016 26.4661 63.0389 26.4622 63.0614C26.4567 63.0942 26.4507 63.127 26.4472 63.1601C26.4457 63.1753 26.4452 63.1909 26.4441 63.2063C26.4408 63.2466 26.4382 63.287 26.4379 63.3273C26.4379 63.3306 26.4375 63.3337 26.4375 63.3368C26.4375 67.1632 30.3413 70.2763 35.1394 70.2763C39.9376 70.2763 43.8414 67.1632 43.8414 63.3368C43.8414 63.3334 43.8409 63.3304 43.8409 63.3273C43.8407 63.287 43.8381 63.2469 43.8348 63.2063C43.8337 63.1909 43.8332 63.1753 43.8317 63.1601C43.8282 63.127 43.8222 63.0942 43.8167 63.0614C43.813 63.0387 43.8099 63.016 43.8053 62.9937C43.8006 62.9719 43.794 62.9501 43.7885 62.9283C43.7801 62.8957 43.7722 62.8629 43.7619 62.8309C43.7572 62.8168 43.7515 62.8027 43.7464 62.7886C43.7328 62.7499 43.7187 62.7115 43.7024 62.6743C43.7011 62.6714 43.7004 62.6686 43.6991 62.6657L36.7917 47.1245V45.6024H49.3489V60.1939C47.3023 60.8852 45.8241 62.8221 45.8241 65.0992V77.5463H42.1891C41.2764 77.5463 40.5369 78.286 40.5369 79.1985C40.5369 80.111 41.2764 80.8508 42.1891 80.8508H59.8133C60.726 80.8508 61.4656 80.111 61.4656 79.1985C61.4656 78.286 60.726 77.5463 59.8133 77.5463H56.1783V65.0992C56.1783 62.8221 54.7001 60.8852 52.6535 60.1939V45.6024H65.2107V47.1245L58.3034 62.6657C58.302 62.6686 58.3012 62.6717 58.3001 62.6745C58.2838 62.7118 58.2697 62.7499 58.2562 62.7884C58.2511 62.8025 58.2452 62.8166 58.2406 62.8309C58.2302 62.8629 58.2223 62.8955 58.2139 62.9283C58.2082 62.9501 58.2018 62.9719 58.1972 62.9937C58.1925 63.016 58.1897 63.0389 58.1857 63.0614C58.1802 63.0942 58.1743 63.127 58.1707 63.1601C58.1692 63.1753 58.1688 63.1909 58.1677 63.2063C58.1643 63.2466 58.1617 63.287 58.1615 63.3273C58.1615 63.3306 58.161 63.3337 58.161 63.3368C58.161 67.1632 62.0648 70.2763 66.863 70.2763C71.6612 70.2763 75.5649 67.1632 75.5649 63.3368C75.5649 63.3334 75.5645 63.3304 75.5645 63.3273C75.5643 63.287 75.5616 63.2466 75.5583 63.2063ZM51.0012 33.2655C52.0338 33.2655 52.8738 34.1055 52.8738 35.138C52.8738 36.1706 52.0338 37.0106 51.0012 37.0106C49.9687 37.0106 49.1286 36.1706 49.1286 35.138C49.1286 34.1055 49.9687 33.2655 51.0012 33.2655ZM35.1394 51.5433L39.6466 61.6845H30.6321L35.1394 51.5433ZM35.1394 66.9717C33.0902 66.9717 31.2639 66.1553 30.3534 64.989H39.9253C39.015 66.1553 37.1887 66.9717 35.1394 66.9717ZM52.8738 77.5463H49.1286V65.0992C49.1286 64.0666 49.9687 63.2266 51.0012 63.2266C52.0338 63.2266 52.8738 64.0666 52.8738 65.0992V77.5463ZM66.863 51.5433L71.3702 61.6845H62.3556L66.863 51.5433ZM66.863 66.9717C64.8137 66.9717 62.9874 66.1553 62.0769 64.989H71.6488C70.7385 66.1553 68.9122 66.9717 66.863 66.9717Z" fill="black"/>
</svg>
