<svg width="106" height="106" viewBox="0 0 106 106" fill="none" xmlns="http://www.w3.org/2000/svg">
<path d="M62.1218 19.1947L74.9912 22.6101C75.3254 22.6784 75.5995 22.9527 75.6769 23.2902L79.0693 36.1588C79.1606 36.5369 79.4911 36.8021 79.8778 36.8021C80.2681 36.8021 80.5985 36.5367 80.6865 36.1588L84.0824 23.2902C84.1561 22.9527 84.4304 22.6784 84.7644 22.6101L97.6347 19.1947C98.0108 19.1243 98.2781 18.7887 98.2781 18.402C98.2781 18.0117 98.011 17.6832 97.6347 17.6074L84.7644 14.1941C84.4304 14.122 84.1561 13.8514 84.0824 13.514L80.6863 0.645109C80.5985 0.270797 80.2681 0 79.8778 0C79.4911 0 79.1606 0.270797 79.0693 0.645109L75.6769 13.5138C75.5995 13.8512 75.3254 14.1218 74.9912 14.1939L62.1218 17.6074C61.7421 17.683 61.4785 18.0117 61.4785 18.402C61.4783 18.7887 61.7421 19.1243 62.1218 19.1947Z" fill="black"/>
<path d="M16.8956 36.2993L19.3179 45.4941C19.3847 45.7666 19.6218 45.9548 19.8978 45.9548C20.1756 45.9548 20.4112 45.7668 20.4762 45.4941L22.9001 36.2993C22.9511 36.0568 23.1498 35.8618 23.3906 35.8107L32.5869 33.3745C32.8558 33.3184 33.0476 33.0758 33.0476 32.8015C33.0476 32.5271 32.8558 32.2917 32.5869 32.2354L23.3906 29.7958C23.1496 29.743 22.9511 29.5531 22.9001 29.3105L20.4762 20.1104C20.4112 19.8434 20.1756 19.6533 19.8978 19.6533C19.6218 19.6533 19.3847 19.8432 19.3179 20.1104L16.8956 29.3105C16.8374 29.5531 16.6459 29.743 16.4033 29.7958L7.20839 32.2354C6.93429 32.2917 6.74609 32.5271 6.74609 32.8015C6.74609 33.0756 6.93408 33.3182 7.20839 33.3745L16.4033 35.8107C16.6461 35.8618 16.8374 36.0568 16.8956 36.2993Z" fill="black"/>
<path d="M7.89062 76.0972V84.3797C7.89062 85.7454 8.16494 87.0762 8.71171 88.3981C9.25827 89.7165 10.0775 91.0258 11.169 92.3056C11.6296 92.8417 12.1464 93.3725 12.7 93.8946V80.6392C12.3379 80.3686 11.9863 80.0962 11.6437 79.8202C10.2179 78.6565 8.95766 77.4137 7.89062 76.0972Z" fill="black"/>
<path d="M16.5449 96.9158C17.8281 97.7578 19.2345 98.5646 20.7617 99.3202C21.4174 99.6473 22.101 99.9564 22.7956 100.259V86.1651C20.551 85.2581 18.4591 84.2511 16.5449 83.1523V96.9158Z" fill="black"/>
<path d="M26.6466 87.5698V101.693H26.4199C29.1602 102.673 32.1325 103.511 35.3001 104.181V89.8306C33.2468 89.4176 31.2572 88.9429 29.3519 88.4015C28.431 88.1375 27.5273 87.8615 26.6466 87.5698Z" fill="black"/>
<path d="M39.1465 104.875C43.1049 105.515 47.2919 105.912 51.6477 106V91.5634C47.3147 91.479 43.1279 91.1187 39.1465 90.5034V104.875Z" fill="black"/>
<path d="M55.498 105.989C60.0333 105.901 64.3818 105.472 68.4799 104.789V90.4385C64.359 91.0923 60.0051 91.4844 55.498 91.5722V105.989Z" fill="black"/>
<path d="M72.3262 104.068C73.8414 103.738 75.3213 103.377 76.7415 102.973C78.2148 102.555 79.6277 102.098 80.9848 101.605V87.4062C78.2709 88.3222 75.3741 89.106 72.3262 89.7354V104.068Z" fill="black"/>
<path d="M84.8301 85.965V100.052C87.1644 98.997 89.2597 97.837 91.0808 96.5888V82.8716C90.128 83.4341 89.1297 83.9771 88.0892 84.4955C87.0449 85.0106 85.9551 85.4992 84.8301 85.965Z" fill="black"/>
<path d="M94.6992 80.4387H94.9276V93.4357C96.5519 91.8062 97.7293 90.1065 98.4326 88.398C98.981 87.0761 99.2551 85.7456 99.2551 84.3796V76.1006C99.1392 76.2447 99.0231 76.389 98.8999 76.5312C97.7119 77.9216 96.295 79.2205 94.6992 80.4387Z" fill="black"/>
<path d="M98.4322 67.6056C98.9807 66.2837 99.2548 64.9549 99.2548 63.5908C99.2548 62.2269 98.9807 60.8979 98.4322 59.5763C97.8871 58.2562 97.0683 56.9466 95.9748 55.6688C93.7951 53.1113 90.5187 50.6961 86.3809 48.6535C78.1123 44.5545 66.4594 41.9461 53.5731 41.9531C45.1167 41.9531 37.1907 43.0674 30.404 44.9992C23.6157 46.9275 17.9697 49.6856 14.0746 52.8653C11.4714 54.98 9.66447 57.2683 8.71171 59.5765C8.16515 60.8982 7.89062 62.2271 7.89062 63.591C7.89062 64.9551 8.16494 66.2839 8.71171 67.6058C9.25827 68.9241 10.0775 70.2336 11.169 71.5114C13.3521 74.0726 16.6286 76.4841 20.7628 78.5285C29.0312 82.6294 40.6869 85.2361 53.5731 85.2309C62.0314 85.2309 69.9563 84.1148 76.7411 82.1814C83.5297 80.2531 89.179 77.4969 93.0709 74.3187C95.6725 72.2002 97.483 69.9119 98.4322 67.6056ZM69.0038 68.314C68.4044 69.3966 67.4498 70.3195 66.1509 71.0841C64.8238 71.8646 63.1626 72.4517 61.1693 72.842C60.2913 73.0142 59.365 73.1302 58.4236 73.2252L58.8069 77.8886H51.3577L51.3065 73.3167C49.2826 73.1919 47.3551 72.9546 45.5552 72.5855C42.8334 72.0265 39.4832 69.8398 39.4832 69.8398C39.1958 69.7115 39.0217 69.4883 39.0103 69.2423C38.9981 68.9964 39.1403 68.7502 39.4076 68.5778L42.982 66.2189C43.3557 65.9729 43.9085 65.9288 44.3232 66.1081C44.3232 66.1081 46.7463 67.6215 48.6474 67.9906C50.5633 68.3563 52.4783 68.5426 54.3811 68.5426C56.786 68.5393 58.752 68.2368 60.2592 67.6391C61.7531 67.0414 62.4061 66.1379 62.2463 64.9286C62.1347 64.0796 61.6838 63.4241 60.8883 62.9476C60.107 62.4747 58.8449 62.1849 57.1073 62.0582L51.4324 61.7453C48.0926 61.5308 45.556 60.9244 43.837 59.9487C42.1487 58.9873 41.4229 57.5741 41.6144 55.7495C41.7162 54.7721 42.1232 53.9214 42.8263 53.1869C43.5145 52.4681 44.4118 51.8685 45.5094 51.3869C46.6003 50.9124 47.8429 50.5538 49.2484 50.3182C49.8283 50.2197 50.4384 50.1565 51.0587 50.0951L51.0351 47.9014L56.3417 47.8873L56.5192 50.0404C57.8015 50.1073 59.0284 50.2234 60.1832 50.4027C62.1597 50.6996 64.3588 51.6261 64.3588 51.6261C64.6313 51.7068 64.835 51.8492 64.9105 52.0182C64.9861 52.1921 64.9246 52.3608 64.741 52.4838L62.332 54.115C62.0701 54.2908 61.6308 54.34 61.2475 54.2257C61.2475 54.2257 59.5627 53.5419 58.1653 53.331C56.7775 53.1202 55.336 53.0181 53.8271 53.0217C51.861 53.0252 50.403 53.2519 49.4565 53.7071C48.495 54.1711 48.0011 54.7758 47.981 55.5369C47.9607 56.2348 48.2919 56.7762 48.9934 57.1594C49.6964 57.5461 50.8889 57.7993 52.5845 57.9012L57.3419 58.1542C60.8881 58.3477 63.6574 58.9452 65.6675 59.9649C67.7311 61.0073 68.9932 62.5751 69.4468 64.7247C69.7315 66.064 69.5837 67.2627 69.0038 68.314ZM92.1287 65.2011L86.5602 66.6776C86.4124 66.7058 86.2929 66.8271 86.2615 66.9764L84.7918 72.5432C84.7533 72.7066 84.6125 72.8225 84.444 72.8225C84.275 72.8225 84.1311 72.7066 84.0924 72.5432L82.6229 66.9764C82.5877 66.8269 82.4718 66.7056 82.3242 66.6776L76.7554 65.2011C76.5902 65.1676 76.4743 65.0218 76.4743 64.8566C76.4743 64.6877 76.5902 64.5436 76.7554 64.5102L82.3242 63.0353C82.4718 62.9985 82.5877 62.8877 82.6229 62.7401L84.0924 57.1681C84.1311 57.0029 84.275 56.8886 84.444 56.8886C84.6125 56.8886 84.7533 57.0029 84.7918 57.1681L86.2615 62.7401C86.2929 62.8877 86.4126 62.9985 86.5602 63.0353L92.1287 64.5102C92.2906 64.5436 92.4101 64.6877 92.4101 64.8566C92.4101 65.0218 92.2906 65.1676 92.1287 65.2011Z" fill="black"/>
</svg>
