<svg width="121" height="121" viewBox="0 0 121 121" fill="none" xmlns="http://www.w3.org/2000/svg">
<path d="M76.4583 20.1623L76.4587 20.1609C76.7904 18.9377 76.6228 17.6328 75.9929 16.533C75.3629 15.4333 74.322 14.6286 73.099 14.2959C71.876 13.9624 70.5706 14.1281 69.4697 14.7569C68.3687 15.3857 67.5625 16.4262 67.2285 17.6494L67.2284 17.6497L44.5409 100.837L44.5408 100.838C44.2077 102.062 44.3745 103.368 45.0045 104.469C45.6345 105.57 46.6761 106.376 47.9001 106.709C49.1241 107.042 50.4302 106.875 51.5312 106.245C52.6321 105.615 53.4376 104.574 53.7708 103.35C53.7708 103.35 53.7709 103.349 53.7709 103.349L76.4583 20.1623ZM83.5896 30.6514L83.5887 30.6523C82.6933 31.5487 82.1904 32.764 82.1904 34.031C82.1904 35.298 82.6933 36.5133 83.5887 37.4098L83.5892 37.4102L106.679 60.4998L83.6008 83.5777C83.1375 84.0128 82.7655 84.5361 82.5067 85.1169C82.2454 85.7034 82.1049 86.3365 82.0935 86.9785C82.0822 87.6205 82.2003 88.2581 82.4408 88.8535C82.6812 89.4489 83.0392 89.9897 83.4932 90.4437C83.9472 90.8977 84.488 91.2556 85.0834 91.4961C85.6787 91.7366 86.3164 91.8547 86.9584 91.8433C87.6003 91.832 88.2335 91.6915 88.82 91.4302C89.4008 91.1714 89.924 90.7994 90.3592 90.336L116.816 63.879L116.817 63.8785C117.712 62.982 118.215 61.7668 118.215 60.4998C118.215 59.2327 117.712 58.0175 116.817 57.121L116.816 57.1206L90.3475 30.6518L90.3471 30.6514C89.4506 29.756 88.2354 29.2531 86.9684 29.2531C85.7013 29.2531 84.4861 29.756 83.5896 30.6514ZM37.4105 30.6523L37.4096 30.6514C36.5131 29.756 35.2979 29.2531 34.0309 29.2531C32.7638 29.2531 31.5486 29.756 30.6521 30.6514L30.6517 30.6518L4.18291 57.1206L4.18247 57.121C3.2871 58.0175 2.78418 59.2327 2.78418 60.4998C2.78418 61.7668 3.2871 62.982 4.18247 63.8785L4.18291 63.879L30.6399 90.336C31.0751 90.7994 31.5984 91.1714 32.1792 91.4302C32.7657 91.6915 33.3989 91.832 34.0408 91.8433C34.6828 91.8547 35.3205 91.7366 35.9158 91.4961L35.5644 90.626L35.9158 91.4961C36.5112 91.2556 37.052 90.8977 37.506 90.4437C37.96 89.9897 38.318 89.4489 38.5584 88.8535C38.7989 88.2581 38.917 87.6205 38.9057 86.9785C38.8943 86.3365 38.7538 85.7034 38.4925 85.1169C38.2337 84.5361 37.8618 84.0128 37.3984 83.5777L14.3205 60.4998L37.41 37.4102L37.4105 37.4098C38.3059 36.5133 38.8088 35.298 38.8088 34.031C38.8088 32.764 38.3059 31.5487 37.4105 30.6523Z" fill="black" stroke="black" stroke-width="2"/>
</svg>
