<svg width="49" height="49" viewBox="0 0 49 49" fill="none" xmlns="http://www.w3.org/2000/svg">
<path d="M32.5362 30.4482C32.4605 30.4481 32.3866 30.4257 32.3237 30.3836C32.2607 30.3415 32.2117 30.2817 32.1828 30.2118C32.1538 30.1419 32.1463 30.0649 32.161 29.9907C32.1758 29.9164 32.2123 29.8483 32.2658 29.7947L44.8543 17.2046C44.6479 16.8943 44.5374 16.5298 44.5374 16.1489C44.5374 15.768 44.6478 15.4035 44.8543 15.0932L35.0567 5.29445C34.4197 5.71612 33.5823 5.71612 32.9453 5.29445L29.5458 8.69354C29.5102 8.72907 29.4681 8.75725 29.4216 8.77648C29.3752 8.7957 29.3254 8.8056 29.2752 8.80559C29.2249 8.80559 29.1752 8.79569 29.1288 8.77645C29.0823 8.75722 29.0402 8.72903 29.0046 8.69349C28.9691 8.65796 28.9409 8.61577 28.9217 8.56934C28.9025 8.52291 28.8926 8.47316 28.8926 8.4229C28.8926 8.37265 28.9025 8.3229 28.9217 8.27647C28.941 8.23005 28.9691 8.18787 29.0047 8.15234L32.647 4.50978C32.7189 4.4381 32.8162 4.39782 32.9176 4.39774C33.0191 4.39767 33.1164 4.43782 33.1883 4.5094C33.637 4.95729 34.3652 4.95729 34.8138 4.5094C34.8857 4.4378 34.983 4.39763 35.0845 4.39771C35.186 4.39778 35.2833 4.43808 35.3551 4.50978L45.6393 14.7958C45.7111 14.8675 45.7514 14.9649 45.7514 15.0664C45.7514 15.1679 45.7111 15.2653 45.6393 15.3371C45.4225 15.5543 45.3028 15.8425 45.3028 16.149C45.3028 16.4555 45.4225 16.7441 45.6393 16.9609C45.7111 17.0327 45.7514 17.1301 45.7514 17.2316C45.7514 17.3331 45.7111 17.4305 45.6393 17.5022L32.8069 30.336C32.7714 30.3717 32.7292 30.3999 32.6827 30.4191C32.6363 30.4384 32.5865 30.4483 32.5362 30.4482Z" fill="#73C1C3"/>
<path d="M32.5366 32.6126C32.4609 32.6126 32.3869 32.5901 32.324 32.548C32.2611 32.5059 32.2121 32.4461 32.1831 32.3762C32.1542 32.3063 32.1466 32.2293 32.1614 32.1551C32.1762 32.0809 32.2126 32.0127 32.2661 31.9591L48.0754 16.1489L34.0005 2.07393L27.3809 8.69343C27.3086 8.76263 27.2121 8.80078 27.1121 8.79969C27.012 8.79861 26.9163 8.75838 26.8455 8.68762C26.7748 8.61686 26.7345 8.5212 26.7334 8.42113C26.7323 8.32105 26.7704 8.22453 26.8396 8.15223L33.7299 1.26198C33.8017 1.19022 33.899 1.1499 34.0005 1.1499C34.102 1.1499 34.1994 1.19022 34.2712 1.26198L48.8874 15.8783C48.923 15.9139 48.9512 15.9561 48.9704 16.0025C48.9896 16.0489 48.9996 16.0987 48.9996 16.1489C48.9996 16.1992 48.9896 16.249 48.9704 16.2954C48.9512 16.3418 48.923 16.384 48.8874 16.4195L32.8072 32.5004C32.7717 32.536 32.7295 32.5643 32.6831 32.5835C32.6366 32.6028 32.5868 32.6127 32.5366 32.6126Z" fill="#73C1C3"/>
<path d="M31.8585 12.7426C31.6469 12.7426 31.472 12.5714 31.472 12.3598C31.472 12.1482 31.6394 11.977 31.8503 11.977H31.8585C32.0693 11.977 32.2413 12.1482 32.2413 12.3598C32.2413 12.5714 32.0693 12.7426 31.8585 12.7426ZM32.9409 11.66C32.7293 11.66 32.5544 11.4888 32.5544 11.2772C32.5544 11.0656 32.7218 10.8944 32.9327 10.8944H32.9409C33.1517 10.8944 33.3237 11.0656 33.3237 11.2772C33.3237 11.4888 33.1517 11.66 32.9409 11.66ZM34.0236 10.5774C33.812 10.5774 33.637 10.4062 33.637 10.1946C33.637 9.98308 33.8045 9.81177 34.0154 9.81177H34.0236C34.2344 9.81177 34.4064 9.98298 34.4064 10.1946C34.4064 10.4062 34.2344 10.5774 34.0236 10.5774ZM34.0004 22.4865C33.9247 22.4865 33.8508 22.464 33.7879 22.4219C33.7249 22.3799 33.6759 22.3201 33.6469 22.2502C33.618 22.1803 33.6104 22.1033 33.6251 22.0291C33.6399 21.9549 33.6763 21.8867 33.7298 21.8331L40.2268 15.3369C40.2621 15.3003 40.3043 15.2712 40.351 15.2511C40.3977 15.231 40.448 15.2205 40.4988 15.22C40.5496 15.2196 40.6 15.2293 40.6471 15.2485C40.6941 15.2678 40.7369 15.2962 40.7728 15.3322C40.8088 15.3681 40.8372 15.4108 40.8564 15.4579C40.8757 15.5049 40.8854 15.5553 40.8849 15.6062C40.8845 15.657 40.8739 15.7072 40.8539 15.7539C40.8338 15.8006 40.8046 15.8429 40.7681 15.8782L34.2711 22.3743C34.2356 22.4099 34.1934 22.4382 34.1469 22.4574C34.1005 22.4767 34.0507 22.4865 34.0004 22.4865ZM32.9177 20.3206C32.8675 20.3207 32.8177 20.3108 32.7712 20.2916C32.7248 20.2723 32.6826 20.2441 32.6471 20.2085L31.0846 18.6459C31.0481 18.6106 31.0189 18.5684 30.9989 18.5217C30.9788 18.475 30.9682 18.4247 30.9678 18.3739C30.9673 18.3231 30.977 18.2727 30.9963 18.2256C31.0155 18.1786 31.044 18.1358 31.0799 18.0999C31.1158 18.0639 31.1586 18.0355 31.2056 18.0163C31.2527 17.997 31.3031 17.9873 31.3539 17.9878C31.4047 17.9882 31.455 17.9988 31.5017 18.0188C31.5484 18.0389 31.5906 18.0681 31.6259 18.1046L33.1884 19.6672C33.2419 19.7207 33.2784 19.7889 33.2931 19.8632C33.3079 19.9374 33.3003 20.0144 33.2713 20.0843C33.2424 20.1543 33.1933 20.214 33.1304 20.2561C33.0674 20.2982 32.9934 20.3206 32.9177 20.3206ZM34.5417 18.2213C34.3406 18.2218 34.1413 18.1825 33.9555 18.1055C33.7697 18.0285 33.6009 17.9154 33.4591 17.7727L32.3765 16.6901C31.7801 16.0931 31.7801 15.122 32.3765 14.525C32.9553 13.9463 33.9631 13.9463 34.5418 14.525L35.6243 15.6075C36.2209 16.2045 36.2209 17.1757 35.6243 17.7727C35.4825 17.9154 35.3138 18.0284 35.1279 18.1054C34.9421 18.1824 34.7429 18.2218 34.5417 18.2213ZM33.459 14.8419C33.3585 14.8417 33.2589 14.8614 33.1659 14.8999C33.073 14.9384 32.9887 14.995 32.9177 15.0663C32.6194 15.3646 32.6194 15.8505 32.9177 16.1488L34.0003 17.2314C34.2904 17.5208 34.7928 17.5208 35.0829 17.2314C35.3812 16.9331 35.3812 16.4472 35.0829 16.1488L34.0003 15.0663C33.9294 14.995 33.845 14.9384 33.7521 14.8999C33.6592 14.8614 33.5596 14.8417 33.459 14.8419ZM37.2489 15.5148C37.0476 15.5154 36.8482 15.4761 36.6622 15.3991C36.4763 15.3221 36.3074 15.2089 36.1655 15.0662L35.083 13.9836C34.9403 13.8417 34.8272 13.6729 34.7502 13.487C34.6732 13.3011 34.6338 13.1018 34.6344 12.9006C34.6344 12.4916 34.7936 12.107 35.083 11.818C35.6615 11.2405 36.6717 11.2398 37.2489 11.8188L38.3308 12.901C38.9272 13.498 38.9272 14.4692 38.3308 15.0662C38.1892 15.2089 38.0206 15.322 37.8349 15.399C37.6491 15.4761 37.4499 15.5154 37.2489 15.5148ZM36.1662 12.1355C35.9613 12.1355 35.7692 12.2152 35.6241 12.3599C35.479 12.5046 35.4 12.6964 35.4 12.9008C35.4 13.1053 35.4798 13.2978 35.6241 13.4425L36.7067 14.5251C36.9968 14.8147 37.5015 14.8151 37.7886 14.5254C38.0877 14.2267 38.0877 13.7408 37.7894 13.4425L36.7068 12.3599C36.636 12.2885 36.5518 12.232 36.459 12.1935C36.3662 12.155 36.2667 12.1353 36.1662 12.1355Z" fill="#73C1C3"/>
<path d="M32.3768 20.8627C32.3011 20.8627 32.2271 20.8402 32.1642 20.7981C32.1013 20.756 32.0523 20.6962 32.0233 20.6263C31.9944 20.5564 31.9868 20.4794 32.0016 20.4052C32.0164 20.331 32.0528 20.2628 32.1063 20.2093L33.1888 19.1259C33.2241 19.0893 33.2664 19.0602 33.3131 19.0401C33.3598 19.0201 33.41 19.0095 33.4608 19.0091C33.5117 19.0086 33.5621 19.0183 33.6091 19.0375C33.6562 19.0568 33.6989 19.0852 33.7349 19.1212C33.7708 19.1571 33.7992 19.1998 33.8185 19.2469C33.8377 19.2939 33.8474 19.3443 33.847 19.3952C33.8465 19.446 33.836 19.4962 33.8159 19.5429C33.7958 19.5896 33.7667 19.6319 33.7301 19.6672L32.6475 20.7506C32.612 20.7862 32.5698 20.8144 32.5233 20.8336C32.4769 20.8529 32.4271 20.8628 32.3768 20.8627ZM28.7928 44.7877H2.59856C1.88232 44.7877 1.2169 44.5066 0.724982 43.996C0.232972 43.4862 -0.0234165 42.811 0.00280612 42.0955L1.53319 12.2298C1.58554 10.7663 2.82519 9.57129 4.295 9.57129H27.0956C28.5655 9.57129 29.8043 10.7663 29.8588 12.2351L31.3879 42.0904C31.4148 42.8111 31.1584 43.4863 30.6664 43.9961C30.1743 44.5067 29.5088 44.7877 28.7928 44.7877ZM4.295 10.3367C3.23183 10.3367 2.33614 11.201 2.29805 12.263L0.76757 42.1291C0.749578 42.6293 0.929787 43.1056 1.27671 43.4652C1.62287 43.8241 2.09229 44.0221 2.59856 44.0221H28.7928C29.2988 44.0221 29.7683 43.8241 30.1145 43.4652C30.4615 43.1056 30.6417 42.6293 30.6229 42.1238L29.0941 12.2686C29.0544 11.201 28.158 10.3366 27.0955 10.3366H4.295V10.3367Z" fill="#73C1C3"/>
<path d="M28.7928 47.0845H2.59856C1.88232 47.0845 1.2169 46.8035 0.724982 46.2929C0.232972 45.783 -0.0234165 45.1078 0.00280612 44.3924C0.010271 44.1816 0.159089 44.0194 0.399783 44.0238C0.501239 44.0277 0.596993 44.0717 0.666084 44.1461C0.735176 44.2205 0.771977 44.3193 0.768431 44.4207C0.749769 44.9262 0.929978 45.4024 1.27681 45.762C1.62296 46.1209 2.09239 46.319 2.59866 46.319H28.7929C29.2989 46.319 29.7684 46.1209 30.1146 45.762C30.4616 45.4024 30.6418 44.9263 30.623 44.4207C30.6194 44.3193 30.6562 44.2205 30.7253 44.1461C30.7944 44.0717 30.8902 44.0277 30.9917 44.0238H31.0058C31.1049 44.0238 31.2002 44.0622 31.2715 44.1309C31.3429 44.1997 31.3849 44.2934 31.3886 44.3924C31.4148 45.1079 31.1584 45.783 30.6664 46.2929C30.1743 46.8036 29.5088 47.0845 28.7928 47.0845Z" fill="#73C1C3"/>
<path d="M0.384766 44.7894C0.173262 44.7894 0.00195317 44.6182 0.00195317 44.4066V42.2511C0.001928 42.2008 0.0118133 42.151 0.0310436 42.1046C0.050274 42.0581 0.0784723 42.0159 0.114026 41.9804C0.14958 41.9448 0.191791 41.9166 0.238247 41.8974C0.284703 41.8782 0.334491 41.8683 0.384766 41.8684C0.596365 41.8684 0.767578 42.0395 0.767578 42.2511V44.4065C0.767616 44.4568 0.757741 44.5066 0.738517 44.5531C0.719293 44.5995 0.691099 44.6417 0.655545 44.6773C0.619991 44.7129 0.577776 44.7411 0.531313 44.7603C0.484851 44.7795 0.435052 44.7894 0.384766 44.7894ZM31.005 44.7894C30.7934 44.7894 30.6222 44.6182 30.6222 44.4066V42.2571C30.6222 42.0455 30.7934 41.8744 31.005 41.8744C31.2166 41.8744 31.3878 42.0455 31.3878 42.2571V44.4066C31.3878 44.6182 31.2166 44.7894 31.005 44.7894ZM20.3721 24.8829H17.4174C16.7842 24.8829 16.2691 24.3677 16.2691 23.7344V21.4377C16.2691 20.8044 16.7842 20.2893 17.4174 20.2893H20.3437C20.9755 20.2893 21.4935 20.8033 21.498 21.4351L21.5145 23.7318C21.5159 23.8827 21.4872 24.0323 21.4301 24.1719C21.373 24.3115 21.2886 24.4383 21.1818 24.5449C21.0761 24.6523 20.95 24.7374 20.811 24.7955C20.6719 24.8535 20.5227 24.8832 20.3721 24.8829ZM17.4174 21.0549C17.2066 21.0549 17.0346 21.2265 17.0346 21.4377V23.7344C17.0346 23.9456 17.2065 24.1172 17.4174 24.1172H20.3721C20.4723 24.1172 20.5672 24.0776 20.639 24.0055C20.7108 23.9333 20.7496 23.838 20.7489 23.7371L20.7324 21.4403C20.7313 21.3379 20.6899 21.24 20.6171 21.1678C20.5444 21.0957 20.4461 21.0551 20.3437 21.0549H17.4174ZM26.5564 24.8829H23.4344C22.8026 24.8829 22.2845 24.3688 22.28 23.7371L22.2636 21.4403C22.2621 21.2895 22.2908 21.1399 22.348 21.0002C22.4051 20.8606 22.4895 20.7338 22.5963 20.6272C22.702 20.5199 22.8281 20.4347 22.9671 20.3767C23.1061 20.3187 23.2553 20.289 23.406 20.2893H26.4443C27.0723 20.2893 27.5973 20.7996 27.6152 21.4268L27.6825 23.7232C27.6871 23.8741 27.6614 24.0243 27.6069 24.165C27.5523 24.3058 27.4699 24.434 27.3647 24.5423C27.2598 24.6505 27.1342 24.7365 26.9953 24.795C26.8564 24.8535 26.7071 24.8834 26.5564 24.8829ZM23.406 21.0549C23.3563 21.0549 23.3071 21.0648 23.2613 21.084C23.2154 21.1032 23.1739 21.1313 23.139 21.1667C23.1038 21.2019 23.0759 21.2438 23.057 21.2899C23.0382 21.336 23.0287 21.3854 23.0292 21.4352L23.0456 23.7319C23.0467 23.8344 23.0881 23.9323 23.1609 24.0044C23.2337 24.0766 23.3319 24.1171 23.4344 24.1173H26.5565C26.6047 24.1176 26.6525 24.1082 26.697 24.0895C26.7415 24.0707 26.7817 24.0432 26.8152 24.0085C26.8491 23.9739 26.8757 23.9327 26.8932 23.8874C26.9106 23.8422 26.9187 23.7938 26.9168 23.7453L26.8495 21.4489C26.8436 21.2351 26.6581 21.0549 26.4443 21.0549H23.406ZM8.38593 24.8829H5.26381C4.95354 24.8829 4.66643 24.7603 4.45712 24.5379C4.24782 24.3158 4.14236 24.0231 4.16035 23.7136L4.29414 21.4142C4.3308 20.7937 4.8653 20.2894 5.4866 20.2894H8.52499C8.83382 20.2894 9.12083 20.4109 9.3332 20.6314C9.54547 20.852 9.6562 21.1428 9.6449 21.4512L9.56193 23.7491C9.538 24.3745 9.01097 24.8829 8.38593 24.8829ZM5.4866 21.0549C5.26754 21.0549 5.07087 21.24 5.05814 21.4587L4.92435 23.7581C4.91908 23.8553 4.95047 23.9454 5.01412 24.0126C5.07766 24.0803 5.16667 24.1173 5.26381 24.1173H8.38593C8.6005 24.1173 8.78893 23.936 8.7964 23.7211L8.87937 21.4233C8.88311 21.3242 8.84875 21.2319 8.78214 21.1627C8.74879 21.1283 8.70879 21.101 8.66457 21.0825C8.62035 21.0639 8.57283 21.0546 8.52489 21.055H5.4866V21.0549ZM14.355 24.8829H11.4482C11.1394 24.8829 10.8516 24.7613 10.6393 24.5408C10.427 24.3202 10.3163 24.029 10.3276 23.721L10.4113 21.4232C10.4352 20.7978 10.9623 20.2894 11.5873 20.2894H14.355C14.9883 20.2894 15.5035 20.8045 15.5035 21.4377V23.7344C15.5035 24.3677 14.9884 24.8829 14.355 24.8829ZM11.5874 21.0549C11.3728 21.0549 11.1844 21.2363 11.1769 21.4512L11.0932 23.7491C11.0894 23.8481 11.1238 23.9405 11.1904 24.0096C11.2239 24.0441 11.264 24.0714 11.3083 24.0899C11.3526 24.1084 11.4003 24.1177 11.4483 24.1172H14.355C14.5629 24.1172 14.7378 23.9419 14.7378 23.7344V21.4377C14.7378 21.2302 14.5629 21.0548 14.355 21.0548H11.5874V21.0549ZM8.02704 35.6009H4.68968C4.37941 35.6009 4.0923 35.4784 3.883 35.2562C3.6736 35.0334 3.56823 34.7411 3.58613 34.4316L3.71992 32.1319C3.75658 31.5121 4.29118 31.0075 4.91238 31.0075H8.1661C8.47493 31.0075 8.76204 31.1286 8.97431 31.3491C9.18658 31.5697 9.29731 31.8613 9.28602 32.1692L9.20304 34.4668C9.17921 35.0926 8.65217 35.6009 8.02704 35.6009ZM4.91238 31.773C4.69332 31.773 4.49675 31.9577 4.48402 32.1768L4.35022 34.4765C4.34496 34.573 4.37635 34.6633 4.4399 34.7306C4.50345 34.7979 4.59245 34.8353 4.68959 34.8353H8.02704C8.24161 34.8353 8.43005 34.6537 8.43751 34.4391L8.52049 32.1416C8.52422 32.0421 8.48986 31.9502 8.42325 31.8806C8.3899 31.8462 8.3499 31.8189 8.30568 31.8003C8.26146 31.7818 8.21394 31.7725 8.166 31.7729H4.91238V31.773ZM20.4439 35.6009H17.4174C16.7842 35.6009 16.2691 35.0858 16.2691 34.4526V32.1558C16.2691 31.5227 16.7842 31.0075 17.4174 31.0075H20.4154C21.0473 31.0075 21.5653 31.5211 21.5698 32.1529L21.5863 34.4496C21.5877 34.6005 21.559 34.7502 21.5018 34.8899C21.4447 35.0295 21.3603 35.1564 21.2535 35.263C21.1477 35.3703 21.0217 35.4554 20.8827 35.5134C20.7437 35.5714 20.5945 35.6012 20.4439 35.6009ZM17.4174 31.773C17.2066 31.773 17.0346 31.945 17.0346 32.1558V34.4526C17.0348 34.5541 17.0752 34.6513 17.147 34.723C17.2187 34.7948 17.316 34.8351 17.4174 34.8353H20.4439C20.4936 34.8353 20.5428 34.8254 20.5886 34.8062C20.6345 34.7869 20.676 34.7587 20.7108 34.7232C20.746 34.6881 20.7739 34.6464 20.7927 34.6005C20.8116 34.5545 20.8211 34.5052 20.8206 34.4556L20.8042 32.1588C20.8032 32.0563 20.7619 31.9582 20.6891 31.886C20.6163 31.8138 20.518 31.7732 20.4154 31.773H17.4174ZM14.355 35.6009H11.0894C10.7806 35.6009 10.4928 35.4791 10.2805 35.2585C10.0681 35.0387 9.95747 34.7471 9.96867 34.4391L10.0524 32.1408C10.0763 31.5159 10.6034 31.0074 11.2284 31.0074H14.355C14.9883 31.0074 15.5035 31.5226 15.5035 32.1557V34.4525C15.5035 35.0858 14.9884 35.6009 14.355 35.6009ZM11.2285 31.773C11.0139 31.773 10.8256 31.9547 10.818 32.1693L10.7343 34.4676C10.732 34.5153 10.7395 34.563 10.7562 34.6077C10.7729 34.6524 10.7985 34.6932 10.8315 34.7278C10.865 34.7622 10.9051 34.7896 10.9494 34.8081C10.9938 34.8266 11.0414 34.8359 11.0894 34.8354H14.355C14.5629 34.8354 14.7378 34.6605 14.7378 34.4527V32.1559C14.7378 31.9481 14.5629 31.7731 14.355 31.7731H11.2285V31.773ZM4.39961 40.9577C4.0901 40.9577 3.80443 40.8359 3.59513 40.6139C3.38573 40.3918 3.28113 40.0995 3.29902 39.7906L3.43281 37.491C3.46947 36.8711 4.00407 36.3665 4.62528 36.3665H7.98666C8.29549 36.3665 8.5826 36.4876 8.79487 36.7081C9.00714 36.9287 9.11787 37.2203 9.10657 37.5283L9.02436 39.8056C9.00044 40.4306 8.4734 40.9404 7.84903 40.9427L4.40391 40.9576L4.39961 40.9577ZM4.62537 37.1321C4.40631 37.1321 4.20973 37.3168 4.197 37.5359L4.06312 39.8355C4.05785 39.932 4.08924 40.0217 4.15212 40.0883C4.2149 40.1556 4.30314 40.1922 4.39961 40.1922V40.575L4.40114 40.1922L7.84626 40.1773C8.06226 40.1765 8.25147 39.9933 8.25893 39.778L8.34114 37.5007C8.34487 37.4013 8.31051 37.3093 8.24391 37.2398C8.21055 37.2053 8.17055 37.178 8.12633 37.1595C8.08211 37.141 8.03459 37.1317 7.98666 37.1321H4.62537ZM26.9871 40.9599L23.542 40.957C22.9095 40.9562 22.3921 40.4419 22.3876 39.8108L22.2993 26.7989C22.298 26.6482 22.3267 26.4986 22.3839 26.3591C22.441 26.2196 22.5254 26.0929 22.6321 25.9863C22.7379 25.8791 22.8639 25.7939 23.0029 25.7359C23.1419 25.6779 23.2911 25.6482 23.4418 25.6484H26.5878C27.2158 25.6484 27.74 26.1591 27.7572 26.7863L28.1146 39.8012C28.1192 39.9521 28.0933 40.1024 28.0384 40.2431C27.9835 40.3838 27.9009 40.5119 27.7953 40.6199C27.6903 40.728 27.5647 40.8138 27.4258 40.8722C27.2869 40.9307 27.1377 40.9605 26.9871 40.9599ZM23.4418 26.414C23.3921 26.414 23.3429 26.4239 23.2971 26.4432C23.2512 26.4624 23.2097 26.4907 23.1749 26.5262C23.1397 26.5612 23.1118 26.6029 23.093 26.6489C23.0741 26.6948 23.0646 26.7441 23.0651 26.7938L23.1533 39.8057C23.1548 40.018 23.3297 40.1907 23.5428 40.1914L26.9872 40.1944C27.0858 40.1944 27.1786 40.1556 27.2466 40.0852C27.2807 40.0506 27.3073 40.0094 27.3249 39.9642C27.3425 39.9189 27.3507 39.8706 27.349 39.822L26.9917 26.8072C26.9864 26.5941 26.801 26.414 26.5879 26.414H23.4418ZM20.4797 40.9599H17.4174C16.7842 40.9599 16.2691 40.4449 16.2691 39.8116V37.5149C16.2691 36.8816 16.7842 36.3665 17.4174 36.3665H20.4513C21.0831 36.3665 21.6012 36.8801 21.6057 37.5119L21.6222 39.8086C21.6236 39.9595 21.5949 40.1092 21.5377 40.2489C21.4806 40.3886 21.3962 40.5155 21.2894 40.6221C21.1836 40.7293 21.0575 40.8144 20.9185 40.8724C20.7795 40.9304 20.6304 40.9602 20.4797 40.9599ZM17.4174 37.1321C17.2066 37.1321 17.0346 37.3041 17.0346 37.5149V39.8116C17.0346 40.0224 17.2065 40.1944 17.4174 40.1944H20.4797C20.5295 40.1944 20.5787 40.1845 20.6245 40.1653C20.6704 40.146 20.7119 40.1178 20.7467 40.0822C20.7819 40.0472 20.8097 40.0055 20.8286 39.9595C20.8475 39.9135 20.857 39.8643 20.8565 39.8146L20.8401 37.5179C20.8391 37.4153 20.7978 37.3173 20.725 37.2451C20.6522 37.1728 20.5539 37.1322 20.4513 37.1321H17.4174ZM14.355 40.9599H10.9099C10.6011 40.9599 10.3133 40.8381 10.1009 40.6176C9.88856 40.3978 9.77793 40.1062 9.78913 39.7982L9.87287 37.5C9.89679 36.8749 10.4239 36.3665 11.0489 36.3665H14.355C14.9883 36.3665 15.5035 36.8816 15.5035 37.5149V39.8116C15.5035 40.4449 14.9884 40.9599 14.355 40.9599ZM11.0491 37.1321C10.8345 37.1321 10.6461 37.3137 10.6386 37.5284L10.5548 39.8266C10.5526 39.8743 10.56 39.922 10.5767 39.9667C10.5935 40.0114 10.6191 40.0523 10.6521 40.0868C10.6855 40.1213 10.7256 40.1487 10.77 40.1672C10.8143 40.1857 10.862 40.195 10.91 40.1945H14.355C14.5629 40.1945 14.7378 40.0196 14.7378 39.8117V37.515C14.7378 37.3071 14.5629 37.1322 14.355 37.1322H11.0491V37.1321ZM20.408 30.2419H17.4174C16.7842 30.2419 16.2691 29.7267 16.2691 29.0935V26.7967C16.2691 26.1636 16.7842 25.6484 17.4174 25.6484H20.3795C21.0114 25.6484 21.5294 26.162 21.5339 26.7938L21.5504 29.0906C21.5518 29.2414 21.5231 29.3911 21.466 29.5308C21.4089 29.6704 21.3245 29.7973 21.2177 29.9039C21.1119 30.0112 20.9858 30.0963 20.8468 30.1543C20.7078 30.2123 20.5586 30.2421 20.408 30.2419ZM17.4174 26.414C17.2066 26.414 17.0346 26.586 17.0346 26.7967V29.0935C17.0346 29.3044 17.2065 29.4763 17.4174 29.4763H20.408C20.4577 29.4764 20.5069 29.4664 20.5527 29.4472C20.5986 29.4279 20.6401 29.3997 20.6749 29.3642C20.7101 29.3291 20.738 29.2874 20.7568 29.2414C20.7757 29.1954 20.7852 29.1462 20.7847 29.0965L20.7683 26.7997C20.7674 26.6972 20.726 26.5992 20.6532 26.5269C20.5804 26.4547 20.4821 26.4141 20.3795 26.414H17.4174Z" fill="#73C1C3"/>
<path d="M8.20737 30.2419H4.97758C4.66731 30.2419 4.3803 30.1193 4.1709 29.8972C3.9615 29.6744 3.85613 29.3821 3.87403 29.0726L4.00782 26.7729C4.04447 26.1531 4.57898 25.6484 5.20028 25.6484H8.34633C8.65516 25.6484 8.94227 25.7696 9.15454 25.9901C9.36691 26.2107 9.47754 26.5023 9.46625 26.8102L9.38327 29.1077C9.35954 29.7335 8.8325 30.2419 8.20737 30.2419ZM5.20038 26.4141C4.98131 26.4141 4.78474 26.5988 4.77201 26.8177L4.63822 29.1175C4.63295 29.214 4.66434 29.3044 4.72799 29.3717C4.79153 29.439 4.88044 29.4764 4.97768 29.4764H8.20746C8.42203 29.4764 8.61047 29.2947 8.61793 29.0801L8.70091 26.7825C8.70464 26.6831 8.67028 26.5912 8.60367 26.5216C8.57032 26.4872 8.53032 26.4599 8.4861 26.4414C8.44188 26.4229 8.39436 26.4136 8.34643 26.414H5.20038V26.4141Z" fill="#73C1C3"/>
<path d="M14.3552 30.2418H11.2689C10.9601 30.2418 10.6723 30.1199 10.46 29.8993C10.2477 29.6795 10.137 29.388 10.1482 29.0799L10.232 26.7816C10.2559 26.1567 10.7829 25.6482 11.408 25.6482H14.3552C14.9884 25.6482 15.5036 26.1634 15.5036 26.7965V29.0933C15.5036 29.7266 14.9885 30.2418 14.3552 30.2418ZM11.4081 26.4139C11.1935 26.4139 11.0051 26.5956 10.9976 26.8101L10.9139 29.1084C10.9116 29.1561 10.919 29.2038 10.9358 29.2485C10.9525 29.2933 10.9781 29.3341 11.0111 29.3687C11.0445 29.4031 11.0846 29.4305 11.129 29.449C11.1733 29.4675 11.221 29.4768 11.269 29.4763H14.3552C14.563 29.4763 14.738 29.3014 14.738 29.0935V26.7967C14.738 26.589 14.563 26.414 14.3552 26.414H11.4081V26.4139Z" fill="#73C1C3"/>
<path d="M26.9769 18.1839H4.50603C4.45483 18.1839 4.40416 18.1737 4.35703 18.1537C4.30989 18.1337 4.26725 18.1044 4.23165 18.0677C4.19583 18.031 4.16777 17.9874 4.14914 17.9396C4.13051 17.8919 4.1217 17.8408 4.12321 17.7896L4.26677 13.0047C4.26988 12.9052 4.31157 12.8109 4.38302 12.7416C4.45447 12.6723 4.55007 12.6336 4.64958 12.6335H26.8513C26.9511 12.6334 27.047 12.6723 27.1185 12.742C27.19 12.8116 27.2315 12.9064 27.2341 13.0062L27.3596 17.7911C27.3608 17.8422 27.3518 17.893 27.3332 17.9406C27.3146 17.9882 27.2867 18.0317 27.2512 18.0684C27.2154 18.1049 27.1728 18.1339 27.1257 18.1537C27.0786 18.1736 27.028 18.1838 26.9769 18.1839ZM4.90071 17.4183H26.5836L26.4781 13.399H5.0211L4.90071 17.4183Z" fill="#73C1C3"/>
<path d="M44.4041 34.0697C42.5042 34.0697 40.959 32.5244 40.959 30.6246C40.959 28.7248 42.5042 27.1794 44.4041 27.1794C46.3038 27.1794 47.849 28.7248 47.849 30.6246C47.849 32.5244 46.3038 34.0697 44.4041 34.0697ZM44.4041 27.9451C42.9266 27.9451 41.7244 29.1473 41.7244 30.6246C41.7244 32.1018 42.9266 33.3041 44.4041 33.3041C45.8814 33.3041 47.0836 32.1018 47.0836 30.6246C47.0836 29.1473 45.8814 27.9451 44.4041 27.9451Z" fill="#73C1C3"/>
<path d="M44.4041 35.6009C42.5042 35.6009 40.959 34.0556 40.959 32.1558C40.959 31.9442 41.1302 31.7729 41.3418 31.7729C41.3921 31.7729 41.4418 31.7828 41.4883 31.8021C41.5347 31.8213 41.5769 31.8495 41.6124 31.8851C41.648 31.9206 41.6762 31.9628 41.6954 32.0093C41.7146 32.0557 41.7245 32.1055 41.7244 32.1558C41.7244 33.6331 42.9266 34.8353 44.4041 34.8353C45.8814 34.8353 47.0836 33.633 47.0836 32.1558C47.0836 31.9442 47.2548 31.7729 47.4664 31.7729C47.5167 31.7729 47.5665 31.7828 47.6129 31.8021C47.6593 31.8213 47.7015 31.8495 47.7371 31.8851C47.7726 31.9206 47.8008 31.9628 47.82 32.0093C47.8392 32.0557 47.8491 32.1055 47.849 32.1558C47.8491 34.0556 46.3038 35.6009 44.4041 35.6009Z" fill="#73C1C3"/>
<path d="M41.3418 32.5385C41.1302 32.5385 40.959 32.3673 40.959 32.1557V30.6245C40.959 30.4129 41.1302 30.2417 41.3418 30.2417C41.3921 30.2417 41.4418 30.2516 41.4883 30.2708C41.5347 30.2901 41.5769 30.3183 41.6124 30.3538C41.648 30.3894 41.6762 30.4316 41.6954 30.478C41.7146 30.5245 41.7245 30.5742 41.7244 30.6245V32.1557C41.7244 32.3673 41.5532 32.5385 41.3418 32.5385Z" fill="#73C1C3"/>
<path d="M47.4668 32.5385C47.2552 32.5385 47.084 32.3673 47.084 32.1557V30.6245C47.084 30.4129 47.2552 30.2417 47.4668 30.2417C47.5171 30.2417 47.5668 30.2516 47.6133 30.2708C47.6597 30.2901 47.7019 30.3183 47.7374 30.3538C47.773 30.3894 47.8012 30.4316 47.8204 30.478C47.8396 30.5245 47.8495 30.5742 47.8494 30.6245V32.1557C47.8495 32.2059 47.8396 32.2557 47.8204 32.3022C47.8012 32.3486 47.773 32.3908 47.7374 32.4264C47.7019 32.4619 47.6597 32.4901 47.6133 32.5094C47.5668 32.5286 47.5171 32.5385 47.4668 32.5385Z" fill="#73C1C3"/>
<path d="M44.4043 31.773C44.1927 31.773 44.0215 31.6018 44.0215 31.3903V29.859C44.0215 29.8088 44.0313 29.759 44.0506 29.7125C44.0698 29.6661 44.098 29.6239 44.1336 29.5883C44.1691 29.5528 44.2113 29.5246 44.2578 29.5054C44.3042 29.4862 44.354 29.4763 44.4043 29.4763C44.4546 29.4763 44.5043 29.4862 44.5508 29.5054C44.5972 29.5247 44.6394 29.5528 44.6749 29.5884C44.7104 29.6239 44.7386 29.6661 44.7578 29.7126C44.7771 29.759 44.7869 29.8088 44.7869 29.859V31.3903C44.7869 31.4405 44.7771 31.4903 44.7578 31.5368C44.7386 31.5832 44.7104 31.6254 44.6749 31.6609C44.6394 31.6965 44.5972 31.7247 44.5508 31.7439C44.5043 31.7631 44.4546 31.773 44.4043 31.773Z" fill="#73C1C3"/>
<path d="M39.8111 46.319C37.0673 46.319 34.835 44.0865 34.835 41.3427C34.835 38.5989 37.0673 36.3665 39.8111 36.3665C42.5549 36.3665 44.7873 38.5989 44.7873 41.3427C44.7873 44.0865 42.5549 46.319 39.8111 46.319ZM39.8111 37.1321C37.4898 37.1321 35.6004 39.0213 35.6004 41.3427C35.6004 43.6642 37.4898 45.5534 39.8111 45.5534C42.1325 45.5534 44.0219 43.6642 44.0219 41.3427C44.0219 39.0213 42.1325 37.1321 39.8111 37.1321Z" fill="#73C1C3"/>
<path d="M39.8111 47.8501C37.0673 47.8501 34.835 45.6176 34.835 42.8738C34.835 42.6622 35.0062 42.491 35.2178 42.491C35.268 42.491 35.3178 42.5008 35.3643 42.5201C35.4107 42.5393 35.4529 42.5675 35.4884 42.6031C35.524 42.6386 35.5521 42.6808 35.5714 42.7273C35.5906 42.7737 35.6004 42.8235 35.6004 42.8738C35.6004 45.1952 37.4898 47.0844 39.8111 47.0844C42.1325 47.0844 44.0219 45.1952 44.0219 42.8738C44.0219 42.6622 44.1931 42.491 44.4047 42.491C44.455 42.491 44.5047 42.5008 44.5512 42.5201C44.5976 42.5393 44.6398 42.5675 44.6754 42.6031C44.7109 42.6386 44.7391 42.6808 44.7583 42.7273C44.7775 42.7737 44.7874 42.8235 44.7873 42.8738C44.7873 45.6176 42.5549 47.8501 39.8111 47.8501Z" fill="#73C1C3"/>
<path d="M39.8105 43.2566C39.5989 43.2566 39.4277 43.0854 39.4277 42.8738V39.8115C39.4277 39.5999 39.5989 39.4287 39.8105 39.4287C40.0221 39.4287 40.1934 39.5999 40.1934 39.8115V42.8738C40.1934 43.0854 40.0221 43.2566 39.8105 43.2566Z" fill="#73C1C3"/>
<path d="M44.4043 43.2567C44.1927 43.2567 44.0215 43.0855 44.0215 42.8739V41.3428C44.0215 41.1312 44.1927 40.96 44.4043 40.96C44.4546 40.9599 44.5043 40.9698 44.5508 40.9891C44.5972 41.0083 44.6394 41.0365 44.6749 41.0721C44.7105 41.1076 44.7387 41.1498 44.7579 41.1963C44.7771 41.2427 44.787 41.2925 44.7869 41.3428V42.8739C44.7869 43.0855 44.6157 43.2567 44.4043 43.2567Z" fill="#73C1C3"/>
<path d="M35.2178 43.2567C35.0062 43.2567 34.835 43.0855 34.835 42.8739V41.3428C34.835 41.1312 35.0062 40.96 35.2178 40.96C35.268 40.9599 35.3178 40.9698 35.3643 40.9891C35.4107 41.0083 35.4529 41.0365 35.4884 41.0721C35.524 41.1076 35.5521 41.1498 35.5714 41.1963C35.5906 41.2427 35.6004 41.2925 35.6004 41.3428V42.8739C35.6004 43.0855 35.4292 43.2567 35.2178 43.2567Z" fill="#73C1C3"/>
</svg>
