<svg width="30" height="37" viewBox="0 0 30 37" fill="none" xmlns="http://www.w3.org/2000/svg">
<path d="M23.3333 18.5V33.6364C23.3333 34.5285 22.9821 35.384 22.357 36.0148C21.7318 36.6456 20.884 37 20 37H3.33332C2.44927 37 1.60143 36.6456 0.976308 36.0148C0.351188 35.384 0 34.5285 0 33.6364V3.36364C0 2.47154 0.351188 1.61599 0.976308 0.985186C1.60143 0.354382 2.44927 0 3.33332 0H11.6666C12.1087 0 12.5326 0.177191 12.8451 0.492593C13.1577 0.807995 13.3333 1.23577 13.3333 1.68182C13.3333 2.12786 13.1577 2.55564 12.8451 2.87104C12.5326 3.18645 12.1087 3.36364 11.6666 3.36364H3.33332V33.6364H20V18.5C20 18.054 20.1755 17.6262 20.4881 17.3108C20.8007 16.9954 21.2246 16.8182 21.6666 16.8182C22.1086 16.8182 22.5326 16.9954 22.8451 17.3108C23.1577 17.6262 23.3333 18.054 23.3333 18.5ZM11.6666 28.5909C11.337 28.5909 11.0148 28.6895 10.7407 28.8743C10.4666 29.0591 10.253 29.3218 10.1268 29.6291C10.0007 29.9364 9.96769 30.2746 10.032 30.6008C10.0963 30.9271 10.255 31.2267 10.4881 31.462C10.7212 31.6972 11.0182 31.8573 11.3415 31.9222C11.6648 31.9871 11.9999 31.9538 12.3044 31.8265C12.609 31.6992 12.8693 31.4837 13.0524 31.2071C13.2356 30.9305 13.3333 30.6054 13.3333 30.2727C13.3333 29.8267 13.1577 29.3989 12.8451 29.0835C12.5326 28.7681 12.1087 28.5909 11.6666 28.5909ZM29.9999 6.05454V7.4C29.9999 7.57842 29.9297 7.74953 29.8047 7.87569C29.6796 8.00185 29.5101 8.07273 29.3333 8.07273H28.2866C28.1484 8.07581 28.0142 8.12054 27.9013 8.20115C27.7885 8.28177 27.7021 8.3946 27.6533 8.52514V8.53523C27.5967 8.66238 27.5792 8.80369 27.603 8.94097C27.6268 9.07825 27.6907 9.20521 27.7866 9.3055L28.5266 10.0522C28.5898 10.1149 28.6401 10.1896 28.6744 10.272C28.7087 10.3545 28.7263 10.443 28.7263 10.5324C28.7263 10.6218 28.7087 10.7103 28.6744 10.7928C28.6401 10.8752 28.5898 10.9499 28.5266 11.0125L27.5916 11.956C27.5295 12.0199 27.4555 12.0706 27.3738 12.1052C27.2921 12.1398 27.2044 12.1576 27.1158 12.1576C27.0272 12.1576 26.9394 12.1398 26.8577 12.1052C26.776 12.0706 26.702 12.0199 26.6399 11.956L25.8999 11.2093C25.8006 11.1126 25.6747 11.048 25.5387 11.0241C25.4027 11.0001 25.2626 11.0177 25.1366 11.0748H25.1266C24.997 11.1237 24.8849 11.2107 24.805 11.3247C24.725 11.4387 24.6809 11.5743 24.6783 11.7139V12.7818C24.6783 12.9602 24.608 13.1313 24.483 13.2575C24.358 13.3837 24.1884 13.4545 24.0116 13.4545H22.6666C22.4898 13.4545 22.3202 13.3837 22.1952 13.2575C22.0702 13.1313 21.9999 12.9602 21.9999 12.7818V11.7189C21.9973 11.5793 21.9532 11.4437 21.8732 11.3297C21.7933 11.2158 21.6812 11.1287 21.5516 11.0798H21.5416C21.4156 11.0228 21.2756 11.0051 21.1395 11.0291C21.0035 11.0531 20.8777 11.1176 20.7783 11.2144L20.0383 11.9611C19.9762 12.0249 19.9022 12.0756 19.8205 12.1102C19.7388 12.1448 19.6511 12.1626 19.5624 12.1626C19.4738 12.1626 19.3861 12.1448 19.3044 12.1102C19.2227 12.0756 19.1487 12.0249 19.0866 11.9611L18.1516 11.0176C18.0884 10.955 18.0381 10.8802 18.0038 10.7978C17.9696 10.7154 17.9519 10.6268 17.9519 10.5374C17.9519 10.448 17.9696 10.3595 18.0038 10.2771C18.0381 10.1946 18.0884 10.1199 18.1516 10.0573L18.8916 9.31054C18.9875 9.21026 19.0515 9.0833 19.0752 8.94602C19.099 8.80874 19.0815 8.66743 19.025 8.54027V8.53018C18.9761 8.39964 18.8897 8.28682 18.7769 8.2062C18.664 8.12558 18.5299 8.08086 18.3916 8.07777H17.3333C17.2457 8.07777 17.159 8.06037 17.0782 8.02656C16.9973 7.99276 16.9238 7.9432 16.8619 7.88073C16.8 7.81827 16.7509 7.74411 16.7174 7.66249C16.6839 7.58087 16.6666 7.49339 16.6666 7.40505V6.05454C16.6666 5.87613 16.7369 5.70502 16.8619 5.57886C16.9869 5.45269 17.1565 5.38182 17.3333 5.38182H18.38C18.5184 5.37883 18.6529 5.33394 18.7658 5.25298C18.8787 5.17202 18.9649 5.05871 19.0133 4.92773V4.91932C19.0698 4.79217 19.0873 4.65085 19.0635 4.51357C19.0398 4.37629 18.9758 4.24933 18.88 4.14905L18.14 3.40232C18.0767 3.33969 18.0265 3.26498 17.9922 3.18253C17.9579 3.10009 17.9402 3.01157 17.9402 2.92216C17.9402 2.83275 17.9579 2.74423 17.9922 2.66179C18.0265 2.57934 18.0767 2.50462 18.14 2.442L19.075 1.4985C19.137 1.43468 19.2111 1.38399 19.2928 1.34938C19.3745 1.31478 19.4622 1.29695 19.5508 1.29695C19.6394 1.29695 19.7271 1.31478 19.8088 1.34938C19.8905 1.38399 19.9646 1.43468 20.0266 1.4985L20.7666 2.24523C20.8659 2.34211 20.9919 2.4066 21.128 2.43029C21.2641 2.45399 21.4042 2.4358 21.5299 2.37809H21.5399C21.6693 2.32882 21.7811 2.24164 21.861 2.12776C21.9409 2.01388 21.9852 1.87849 21.9883 1.739V0.672727C21.9883 0.494309 22.0585 0.323198 22.1835 0.197037C22.3086 0.0708765 22.4781 0 22.6549 0H23.9999C24.1768 0 24.3463 0.0708765 24.4713 0.197037C24.5964 0.323198 24.6666 0.494309 24.6666 0.672727V1.72891C24.6697 1.8684 24.714 2.00379 24.7939 2.11767C24.8738 2.23155 24.9856 2.31873 25.1149 2.368H25.1249C25.2507 2.42571 25.3907 2.4439 25.5269 2.4202C25.663 2.3965 25.7889 2.33202 25.8883 2.23514L26.6283 1.48841C26.6903 1.42459 26.7644 1.3739 26.8461 1.33929C26.9278 1.30468 27.0155 1.28686 27.1041 1.28686C27.1927 1.28686 27.2804 1.30468 27.3621 1.33929C27.4438 1.3739 27.5179 1.42459 27.5799 1.48841L28.5149 2.43191C28.5782 2.49453 28.6284 2.56925 28.6627 2.6517C28.697 2.73414 28.7147 2.82266 28.7147 2.91207C28.7147 3.00148 28.697 3.09 28.6627 3.17244C28.6284 3.25488 28.5782 3.3296 28.5149 3.39223L27.7749 4.13895C27.679 4.23924 27.6151 4.3662 27.5913 4.50348C27.5676 4.64076 27.5851 4.78207 27.6416 4.90923V4.91764C27.69 5.04862 27.7762 5.16193 27.8891 5.24289C28.002 5.32385 28.1364 5.36874 28.2749 5.37173H29.3333C29.4217 5.37172 29.5092 5.38945 29.5907 5.42388C29.6723 5.45832 29.7462 5.50878 29.8082 5.57232C29.8703 5.63586 29.9192 5.71122 29.9521 5.794C29.985 5.87679 30.0012 5.96536 29.9999 6.05454ZM25.3333 6.72727C25.3333 6.32811 25.216 5.93792 24.9962 5.60603C24.7764 5.27414 24.4641 5.01547 24.0986 4.86272C23.7332 4.70996 23.3311 4.67 22.9431 4.74787C22.5551 4.82574 22.1988 5.01796 21.9191 5.3002C21.6394 5.58245 21.4489 5.94206 21.3717 6.33354C21.2945 6.72503 21.3341 7.13082 21.4855 7.4996C21.6369 7.86837 21.8932 8.18357 22.2221 8.40533C22.551 8.62709 22.9377 8.74545 23.3333 8.74545C23.8637 8.74545 24.3724 8.53282 24.7475 8.15434C25.1226 7.77586 25.3333 7.26253 25.3333 6.72727Z" fill="#73C1C3"/>
</svg>
