<svg width="45" height="45" viewBox="0 0 45 45" fill="none" xmlns="http://www.w3.org/2000/svg">
<g clip-path="url(#clip0_170_46)">
<path d="M37.2728 1.55508H17.7858V1.50648C17.7858 0.675778 17.11 0 16.2793 0H11.6141C10.7834 0 10.1076 0.675778 10.1076 1.50648V1.55508H7.7264C6.46698 1.55508 5.44238 2.57968 5.44238 3.83909V42.716C5.44238 43.9754 6.46698 45 7.7264 45H37.2728C38.5323 45 39.5569 43.9754 39.5569 42.716V3.83909C39.5569 2.57968 38.5323 1.55508 37.2728 1.55508ZM11.5655 1.50648C11.5655 1.47965 11.5874 1.45788 11.6141 1.45788H16.2793C16.306 1.45788 16.3279 1.47965 16.3279 1.50648V10.435L14.2727 9.40743C14.1701 9.35611 14.0584 9.33045 13.9467 9.33045C13.835 9.33045 13.7233 9.35611 13.6207 9.40743L11.5655 10.435V1.50648ZM38.099 42.716C38.099 43.1715 37.7284 43.5421 37.2728 43.5421H7.7264C7.27086 43.5421 6.90027 43.1715 6.90027 42.716V3.83909C6.90027 3.38355 7.27086 3.01296 7.7264 3.01296H10.1076V11.6145C10.1076 11.8671 10.2384 12.1017 10.4533 12.2346C10.6684 12.3675 10.9368 12.3795 11.1626 12.2664L13.9468 10.8744L16.731 12.2664C16.8339 12.3179 16.9456 12.3434 17.057 12.3434C17.1902 12.3434 17.3231 12.3069 17.4402 12.2346C17.6551 12.1017 17.7859 11.8671 17.7859 11.6145V3.01296H37.2729C37.7285 3.01296 38.0991 3.38355 38.0991 3.83909V42.716H38.099Z" fill="#73C1C3"/>
<path d="M33.334 27.8853C33.3336 27.8785 33.3334 27.8716 33.3327 27.8649C33.3311 27.8504 33.3285 27.8359 33.3261 27.8214C33.3244 27.8114 33.3231 27.8014 33.321 27.7916C33.319 27.7819 33.3161 27.7723 33.3136 27.7627C33.3099 27.7483 33.3064 27.7338 33.3019 27.7197C33.2998 27.7135 33.2973 27.7073 33.2951 27.7011C33.289 27.684 33.2828 27.6671 33.2756 27.6506C33.275 27.6494 33.2747 27.6481 33.2742 27.6468L30.2268 20.7904V20.1189H31.0529C31.4556 20.1189 31.7819 19.7925 31.7819 19.39C31.7819 18.9874 31.4556 18.661 31.0529 18.661H23.229V17.6664C24.1319 17.3614 24.784 16.5069 24.784 15.5023C24.784 14.2429 23.7594 13.2183 22.5 13.2183C21.2406 13.2183 20.216 14.2429 20.216 15.5023C20.216 16.5069 20.8682 17.3614 21.7711 17.6664V18.661H13.9471C13.5444 18.661 13.2182 18.9874 13.2182 19.39C13.2182 19.7925 13.5444 20.1189 13.9471 20.1189H14.7732V20.7904L11.7259 27.6468C11.7253 27.6481 11.7249 27.6495 11.7244 27.6507C11.7172 27.6671 11.711 27.684 11.7051 27.701C11.7028 27.7072 11.7002 27.7134 11.6982 27.7197C11.6936 27.7338 11.6901 27.7482 11.6864 27.7627C11.6839 27.7723 11.6811 27.7819 11.679 27.7916C11.677 27.8014 11.6757 27.8115 11.674 27.8214C11.6715 27.8359 11.6689 27.8504 11.6674 27.8649C11.6667 27.8716 11.6665 27.8785 11.666 27.8853C11.6645 27.9031 11.6634 27.9209 11.6633 27.9387C11.6633 27.9402 11.6631 27.9415 11.6631 27.9429C11.6631 29.631 13.3853 31.0044 15.5022 31.0044C17.619 31.0044 19.3413 29.631 19.3413 27.9429C19.3413 27.9414 19.3411 27.9401 19.3411 27.9387C19.341 27.9209 19.3398 27.9032 19.3384 27.8853C19.3379 27.8785 19.3377 27.8716 19.337 27.8649C19.3354 27.8504 19.3328 27.8359 19.3304 27.8214C19.3287 27.8114 19.3274 27.8014 19.3253 27.7916C19.3233 27.7819 19.3204 27.7723 19.3179 27.7627C19.3143 27.7483 19.3108 27.7338 19.3062 27.7197C19.3041 27.7135 19.3016 27.7073 19.2994 27.7011C19.2934 27.684 19.2871 27.6671 19.2799 27.6506C19.2794 27.6494 19.2791 27.6481 19.2785 27.6468L16.2311 20.7904V20.1189H21.7711V26.5563C20.8682 26.8613 20.216 27.7158 20.216 28.7204V34.2118H18.6123C18.2097 34.2118 17.8834 34.5382 17.8834 34.9407C17.8834 35.3433 18.2097 35.6697 18.6123 35.6697H26.3877C26.7904 35.6697 27.1167 35.3433 27.1167 34.9407C27.1167 34.5382 26.7904 34.2118 26.3877 34.2118H24.784V28.7204C24.784 27.7158 24.1319 26.8613 23.229 26.5563V20.1189H28.7689V20.7904L25.7216 27.6468C25.721 27.6481 25.7206 27.6495 25.7201 27.6507C25.7129 27.6671 25.7067 27.684 25.7008 27.701C25.6985 27.7072 25.6959 27.7134 25.6939 27.7197C25.6893 27.7338 25.6858 27.7482 25.6821 27.7627C25.6796 27.7723 25.6767 27.7819 25.6747 27.7916C25.6727 27.8014 25.6714 27.8115 25.6697 27.8214C25.6672 27.8359 25.6646 27.8504 25.663 27.8649C25.6624 27.8716 25.6622 27.8785 25.6617 27.8853C25.6602 27.9031 25.6591 27.9209 25.659 27.9387C25.659 27.9402 25.6588 27.9415 25.6588 27.9429C25.6588 29.631 27.381 31.0044 29.4979 31.0044C31.6147 31.0044 33.337 29.631 33.337 27.9429C33.337 27.9414 33.3368 27.9401 33.3368 27.9387C33.3367 27.9209 33.3355 27.9031 33.334 27.8853ZM22.5 14.6761C22.9556 14.6761 23.3262 15.0467 23.3262 15.5023C23.3262 15.9578 22.9556 16.3284 22.5 16.3284C22.0445 16.3284 21.6739 15.9578 21.6739 15.5023C21.6739 15.0467 22.0445 14.6761 22.5 14.6761ZM15.5022 22.7399L17.4906 27.2139H13.5136L15.5022 22.7399ZM15.5022 29.5466C14.5981 29.5466 13.7924 29.1864 13.3907 28.6718H17.6136C17.212 29.1864 16.4063 29.5466 15.5022 29.5466ZM23.3262 34.2118H21.6739V28.7204C21.6739 28.2649 22.0445 27.8943 22.5 27.8943C22.9556 27.8943 23.3262 28.2649 23.3262 28.7204V34.2118ZM29.4979 22.7399L31.4863 27.2139H27.5093L29.4979 22.7399ZM29.4979 29.5466C28.5938 29.5466 27.7881 29.1864 27.3864 28.6718H31.6093C31.2077 29.1864 30.4019 29.5466 29.4979 29.5466Z" fill="#73C1C3"/>
</g>
<defs>
<clipPath id="clip0_170_46">
<rect width="45" height="45" fill="white"/>
</clipPath>
</defs>
</svg>
