<svg width="121" height="121" viewBox="0 0 121 121" fill="none" xmlns="http://www.w3.org/2000/svg">
<path d="M108.685 26.1072C108.669 26.0246 108.646 25.9459 108.62 25.8661C108.606 25.8297 108.601 25.7903 108.587 25.7548C108.551 25.6693 108.505 25.5886 108.457 25.5089C108.442 25.4839 108.432 25.4551 108.414 25.4302C108.346 25.3265 108.267 25.2304 108.18 25.143L83.5918 0.555063C83.5054 0.466714 83.4093 0.387968 83.3056 0.319786C83.2797 0.3025 83.2518 0.291936 83.2259 0.276571C83.1472 0.228556 83.0675 0.1815 82.981 0.145968C82.9446 0.130603 82.9061 0.123881 82.8687 0.110437C82.7899 0.0835476 82.7112 0.0537778 82.6286 0.0374524C82.5066 0.0134444 82.3808 0 82.2541 0H17.9608C14.8331 0 12.2892 2.54388 12.2892 5.67163V115.328C12.2892 118.456 14.8331 121 17.9608 121H103.063C106.191 121 108.711 118.456 108.711 115.328V26.4808C108.711 26.354 108.71 26.2282 108.685 26.1072ZM104.93 115.328C104.93 116.37 104.107 117.219 103.064 117.219H17.9608C16.9179 117.219 16.07 116.37 16.07 115.328V5.67163C16.07 4.62969 16.9179 3.78077 17.9608 3.78077H80.3517V20.1782C80.3517 24.6955 84.0393 28.3591 88.5557 28.3591H104.93V115.328Z" fill="#73C1C3"/>
<path d="M60.4232 47.2647H44.43V31.1842C44.43 30.6618 43.9681 30.2383 43.4448 30.2383C33.542 30.2383 25.4638 38.2963 25.4638 48.2001C25.4638 58.1038 33.5122 66.1628 43.415 66.1628C53.3207 66.1628 61.3729 58.1096 61.3729 48.2049C61.3729 47.6824 60.9456 47.2647 60.4232 47.2647Z" fill="#73C1C3"/>
<path d="M48.207 25.5425C47.6846 25.5425 47.2659 25.9641 47.2659 26.4874V43.5043C47.2659 44.0267 47.6817 44.43 48.2031 44.43H65.22C65.7424 44.43 66.1668 44.0161 66.1668 43.4937C66.1659 33.5909 58.1107 25.5425 48.207 25.5425Z" fill="#73C1C3"/>
<path d="M95.4988 36.8667H74.6628C73.618 36.8667 72.7719 37.7137 72.7719 38.7576C72.7719 39.8014 73.618 40.6484 74.6628 40.6484H95.4988C96.5436 40.6484 97.3897 39.8014 97.3897 38.7576C97.3897 37.7137 96.5436 36.8667 95.4988 36.8667Z" fill="#73C1C3"/>
<path d="M95.4652 46.3198H74.6628C73.618 46.3198 72.7719 47.1668 72.7719 48.2107C72.7719 49.2546 73.618 50.1016 74.6628 50.1016H95.4652C96.5081 50.1016 97.356 49.2546 97.356 48.2107C97.356 47.1668 96.5081 46.3198 95.4652 46.3198Z" fill="#73C1C3"/>
<path d="M95.4652 55.7734H74.6628C73.618 55.7734 72.7719 56.6204 72.7719 57.6643C72.7719 58.7082 73.618 59.5552 74.6628 59.5552H95.4652C96.5081 59.5552 97.356 58.7082 97.356 57.6643C97.356 56.6204 96.5081 55.7734 95.4652 55.7734Z" fill="#73C1C3"/>
<path d="M46.3612 78.4609H25.5252C24.4804 78.4609 23.6344 79.3079 23.6344 80.3518C23.6344 81.3957 24.4804 82.2427 25.5252 82.2427H46.3612C47.4061 82.2427 48.2521 81.3957 48.2521 80.3518C48.2521 79.3079 47.4061 78.4609 46.3612 78.4609Z" fill="#73C1C3"/>
<path d="M46.3276 87.9131H25.5252C24.4804 87.9131 23.6344 88.7601 23.6344 89.804C23.6344 90.8478 24.4804 91.6948 25.5252 91.6948H46.3276C47.3705 91.6948 48.2185 90.8478 48.2185 89.804C48.2185 88.7601 47.3705 87.9131 46.3276 87.9131Z" fill="#73C1C3"/>
<path d="M46.3276 97.3667H25.5252C24.4804 97.3667 23.6344 98.2137 23.6344 99.2576C23.6344 100.301 24.4804 101.148 25.5252 101.148H46.3276C47.3705 101.148 48.2185 100.301 48.2185 99.2576C48.2185 98.2137 47.3705 97.3667 46.3276 97.3667Z" fill="#73C1C3"/>
<path d="M69.0074 75.6252C69.0074 74.5814 68.1604 73.7344 67.1166 73.7344H60.5C59.4552 73.7344 58.6091 74.5814 58.6091 75.6252V102.094C58.6091 103.137 59.4552 103.984 60.5 103.984H67.1175C68.1614 103.984 69.0084 103.137 69.0084 102.094V75.6252H69.0074ZM65.2267 83.1877H62.3909V77.5161H65.2267V83.1877Z" fill="#73C1C3"/>
<path d="M95.4767 80.3516H88.8591C87.8153 80.3516 86.9683 81.1986 86.9683 82.2424V102.094C86.9683 103.138 87.8153 103.985 88.8591 103.985H95.4767C96.5205 103.985 97.3675 103.138 97.3675 102.094V82.2424C97.3675 81.1986 96.5205 80.3516 95.4767 80.3516ZM93.5858 91.6948H90.75V84.1323H93.5858V91.6948Z" fill="#73C1C3"/>
<path d="M81.2966 86.9683H74.6791C73.6352 86.9683 72.7882 87.8153 72.7882 88.8591V102.093C72.7882 103.137 73.6352 103.984 74.6791 103.984H81.2966C82.3405 103.984 83.1875 103.137 83.1875 102.093V88.8591C83.1875 87.8153 82.3405 86.9683 81.2966 86.9683ZM79.4067 95.4767H76.5709V90.75H79.4067V95.4767Z" fill="#73C1C3"/>
</svg>
