<svg width="43" height="32" viewBox="0 0 43 32" fill="none" xmlns="http://www.w3.org/2000/svg">
<g clip-path="url(#clip0_540_244)">
<path fill-rule="evenodd" clip-rule="evenodd" d="M1.16878 0H41.8312C42.4751 0 43 0.47105 43 1.04887V25.2232C43 25.801 42.4751 26.272 41.8312 26.272H1.16878C0.524902 26.272 0 25.801 0 25.2232V1.04887C0 0.47105 0.524902 0 1.16878 0ZM28.5897 21.2695L22.9697 18.2139V16.2763L28.5897 13.2208V15.5227L25.1743 17.2499L28.5897 18.977V21.2695ZM32.0785 21.2695L37.6985 18.2139V16.2763L32.0785 13.2208V15.5227L35.4939 17.2499L32.0785 18.977V21.2695ZM13.5215 13.8112L14.8617 15.0139C15.2152 15.3311 15.2152 15.8493 14.8617 16.1633L13.7839 17.1305C14.0814 17.6298 14.3088 18.1668 14.4523 18.7321H15.8486C16.3455 18.7321 16.7549 19.0995 16.7549 19.5454V21.2444C16.7549 21.6903 16.3455 22.0577 15.8486 22.0577H14.3228C14.1864 22.4597 14.0114 22.8428 13.7944 23.2071H40.218C40.7849 23.2071 41.2503 22.7894 41.2503 22.2807V2.57193C41.2503 2.0632 40.7884 1.64553 40.218 1.64553H2.78548C2.21509 1.64553 1.74967 2.0632 1.75317 2.57193V13.4406C2.10661 13.1925 2.62801 13.2114 2.94995 13.5066L4.02775 14.4738C4.58415 14.2069 5.18254 14.0027 5.81242 13.874V12.621C5.81242 12.1751 6.22184 11.8108 6.71875 11.8108H8.6119C9.10881 11.8108 9.51823 12.1782 9.51823 12.6241V13.9902C10.1341 14.1598 10.7185 14.3984 11.2504 14.6999L12.2372 13.8112C12.5942 13.494 13.1681 13.494 13.5215 13.8112ZM7.42562 16.4239C9.73519 16.4239 11.6073 18.104 11.6073 20.1798C11.6073 21.4234 10.9355 22.5256 9.89616 23.2071H4.95508C3.91577 22.5256 3.2439 21.4234 3.2439 20.1798C3.2439 18.104 5.11605 16.4239 7.42562 16.4239ZM4.77661 7.61531H7.46061C7.66707 7.61531 7.83504 7.77233 7.83504 7.95132V8.63592C7.83504 8.81806 7.66007 8.97193 7.46061 8.97193H4.77661C4.57365 8.97193 4.40218 8.8212 4.40218 8.63592V7.95132C4.39868 7.76604 4.56665 7.61531 4.77661 7.61531ZM9.22078 4.12012H19.6069C19.8133 4.12012 19.9813 4.27399 19.9813 4.45613V5.14073C19.9813 5.32601 19.8098 5.47674 19.6069 5.47674H9.22078C9.01432 5.47674 8.84635 5.32601 8.84635 5.14073V4.45613C8.84635 4.27085 9.01432 4.12012 9.22078 4.12012ZM4.77661 4.12012H7.46061C7.66707 4.12012 7.83504 4.27085 7.83504 4.45613V5.14073C7.83504 5.32601 7.66707 5.47674 7.46061 5.47674H4.77661C4.57015 5.47674 4.40218 5.32601 4.40218 5.14073V4.45613C4.39868 4.27085 4.56665 4.12012 4.77661 4.12012ZM13.4235 7.61531H30.6578C30.8643 7.61531 31.0322 7.77233 31.0322 7.95132V8.63592C31.0322 8.81492 30.8573 8.97193 30.6578 8.97193H13.4235C13.2205 8.97193 13.0491 8.8212 13.0491 8.63592V7.95132C13.0491 7.76604 13.217 7.61531 13.4235 7.61531ZM9.17179 7.61531H11.8558C12.0623 7.61531 12.2302 7.77233 12.2302 7.95132V8.63592C12.2302 8.81806 12.0553 8.97193 11.8558 8.97193H9.17179C8.96883 8.97193 8.79736 8.8212 8.79736 8.63592V7.95132C8.79386 7.76604 8.96533 7.61531 9.17179 7.61531ZM16.1985 27.7197H26.8015C26.8295 29.3653 27.5854 30.8381 29.6325 32H13.3675C15.0052 30.9354 16.2055 29.6416 16.1985 27.7197Z" fill="#73C1C3"/>
</g>
<defs>
<clipPath id="clip0_540_244">
<rect width="43" height="32" fill="white"/>
</clipPath>
</defs>
</svg>
