<svg width="39" height="39" viewBox="0 0 39 39" fill="none" xmlns="http://www.w3.org/2000/svg">
<g clip-path="url(#clip0_170_51)">
<path d="M33.0399 7.59686L19.8398 20.7969L22.8059 23.763L36.0059 10.5629L33.0399 7.59686Z" fill="#73C1C3"/>
<path d="M30.4541 1.73481L37.2652 8.54603L39.0002 0L30.4541 1.73481Z" fill="#73C1C3"/>
<path d="M17.5839 5.93848L6.6582 16.8641L10.3886 17.7667L21.3141 6.84104L17.5839 5.93848Z" fill="#73C1C3"/>
<path d="M28.4363 2.99334L15.2363 16.1934L18.2024 19.1594L31.4024 5.95942L28.4363 2.99334Z" fill="#73C1C3"/>
<path d="M21.1684 25.4005L13.5991 17.8313L13.0256 18.4048H13.0257L11.6849 19.7456C11.1526 20.2779 10.8594 20.9857 10.8594 21.7385C10.8594 22.4914 11.1526 23.1992 11.6849 23.7315L15.2681 27.3147C15.8004 27.8471 16.5082 28.1402 17.2611 28.1402C18.014 28.1402 18.7218 27.8471 19.2541 27.3147L20.5948 25.974L21.1684 25.4005Z" fill="#73C1C3"/>
<path d="M32.1592 17.6855L21.2334 28.6113L22.136 32.3416L33.0617 21.4159L32.1592 17.6855Z" fill="#73C1C3"/>
<path d="M12.5468 26.4532C9.81667 23.723 5.37418 23.7229 2.64387 26.4532C-1.36886 30.4658 0.357952 37.4371 0.433439 37.7319L0.603607 38.3963L1.26805 38.5665C1.40623 38.6018 3.01056 38.9999 5.08998 38.9999C7.44719 38.9999 10.4148 38.488 12.5468 36.356C15.2771 33.6258 15.2771 29.1834 12.5468 26.4532ZM9.54466 33.3539C8.38944 34.5091 6.48735 34.7516 5.09516 34.7516L4.2511 34.7468L4.24592 33.9846C4.2284 31.4158 4.99766 30.1036 5.64618 29.4552C6.1669 28.9345 6.85907 28.6478 7.59535 28.6478C8.33162 28.6478 9.02395 28.9346 9.54466 29.4552C10.0647 29.9753 10.3511 30.6676 10.3511 31.4045C10.3511 32.1415 10.0647 32.8338 9.54466 33.3539Z" fill="#73C1C3"/>
</g>
<defs>
<clipPath id="clip0_170_51">
<rect width="39" height="39" fill="white"/>
</clipPath>
</defs>
</svg>
