<svg width="46" height="46" viewBox="0 0 46 46" fill="none" xmlns="http://www.w3.org/2000/svg">
<path d="M26.9579 8.32977L32.5427 9.81193C32.6877 9.84157 32.8067 9.96062 32.8403 10.1071L34.3125 15.6916C34.3521 15.8556 34.4955 15.9707 34.6633 15.9707C34.8327 15.9707 34.9761 15.8555 35.0142 15.6916L36.4879 10.1071C36.5199 9.96062 36.639 9.84157 36.7839 9.81193L42.3691 8.32977C42.5324 8.29923 42.6483 8.15359 42.6483 7.98576C42.6483 7.81641 42.5325 7.67382 42.3691 7.64094L36.7839 6.15969C36.639 6.12842 36.5199 6.011 36.4879 5.86455L35.0141 0.279953C34.9761 0.117516 34.8327 0 34.6633 0C34.4955 0 34.3521 0.117516 34.3125 0.279953L32.8403 5.86446C32.8067 6.01091 32.6877 6.12833 32.5427 6.1596L26.9579 7.64094C26.7931 7.67373 26.6787 7.81641 26.6787 7.98576C26.6786 8.15359 26.7931 8.29923 26.9579 8.32977Z" fill="#73C1C3"/>
<path d="M7.33223 15.7525L8.38341 19.7427C8.41243 19.861 8.5153 19.9426 8.63506 19.9426C8.75563 19.9426 8.85787 19.8611 8.88608 19.7427L9.93797 15.7525C9.96007 15.6473 10.0463 15.5627 10.1508 15.5405L14.1417 14.4833C14.2584 14.4589 14.3416 14.3536 14.3416 14.2346C14.3416 14.1156 14.2584 14.0134 14.1417 13.989L10.1508 12.9303C10.0462 12.9073 9.96007 12.825 9.93797 12.7197L8.88608 8.72718C8.85787 8.61129 8.75563 8.52881 8.63506 8.52881C8.5153 8.52881 8.41243 8.6112 8.38341 8.72718L7.33223 12.7197C7.30699 12.825 7.22388 12.9073 7.11859 12.9303L3.12836 13.989C3.0094 14.0134 2.92773 14.1156 2.92773 14.2346C2.92773 14.3536 3.00931 14.4589 3.12836 14.4833L7.11859 15.5405C7.22397 15.5627 7.30699 15.6473 7.33223 15.7525Z" fill="#73C1C3"/>
<path d="M3.4248 33.0232V36.6175C3.4248 37.2102 3.54385 37.7877 3.78112 38.3614C4.01831 38.9335 4.37382 39.5016 4.84748 40.0571C5.04738 40.2897 5.27163 40.52 5.51187 40.7466V34.9943C5.35474 34.8769 5.20218 34.7586 5.05349 34.6389C4.43474 34.1338 3.88786 33.5945 3.4248 33.0232Z" fill="#73C1C3"/>
<path d="M7.18066 42.0578C7.73752 42.4232 8.34782 42.7733 9.0106 43.1012C9.29514 43.2432 9.5918 43.3773 9.89323 43.5086V37.3924C8.91914 36.9988 8.01136 36.5618 7.18066 36.085V42.0578Z" fill="#73C1C3"/>
<path d="M11.5632 38.002V44.1311H11.4648C12.654 44.556 13.9439 44.9199 15.3185 45.2105V38.983C14.4274 38.8038 13.564 38.5978 12.7372 38.3629C12.3376 38.2483 11.9454 38.1285 11.5632 38.002Z" fill="#73C1C3"/>
<path d="M16.9883 45.5118C18.7061 45.7894 20.5231 45.9618 22.4133 46V39.7351C20.533 39.6985 18.7161 39.5422 16.9883 39.2751V45.5118Z" fill="#73C1C3"/>
<path d="M24.084 45.9955C26.0521 45.9574 27.9392 45.7713 29.7176 45.4745V39.2471C27.9293 39.5308 26.0399 39.701 24.084 39.7391V45.9955Z" fill="#73C1C3"/>
<path d="M31.3867 45.1618C32.0443 45.0184 32.6865 44.862 33.3028 44.6865C33.9421 44.505 34.5553 44.3066 35.1443 44.0931V37.9312C33.9665 38.3286 32.7094 38.6688 31.3867 38.9419V45.1618Z" fill="#73C1C3"/>
<path d="M36.8135 37.3056V43.4187C37.8265 42.961 38.7358 42.4576 39.526 41.9159V35.9631C39.1126 36.2072 38.6794 36.4429 38.2278 36.6679C37.7746 36.8914 37.3017 37.1034 36.8135 37.3056Z" fill="#73C1C3"/>
<path d="M41.0957 34.9072H41.1948V40.5475C41.8997 39.8403 42.4107 39.1027 42.7159 38.3613C42.9539 37.7876 43.0728 37.2102 43.0728 36.6174V33.0247C43.0225 33.0872 42.9721 33.1498 42.9186 33.2115C42.4031 33.8149 41.7882 34.3786 41.0957 34.9072Z" fill="#73C1C3"/>
<path d="M42.7155 29.3382C42.9535 28.7646 43.0724 28.188 43.0724 27.596C43.0724 27.0041 42.9535 26.4274 42.7155 25.8538C42.4789 25.281 42.1236 24.7126 41.649 24.1581C40.7031 23.0483 39.2813 22.0002 37.4857 21.1138C33.8974 19.3349 28.8404 18.203 23.2483 18.2061C19.5785 18.2061 16.139 18.6896 13.1938 19.5279C10.2479 20.3647 7.79778 21.5616 6.10746 22.9415C4.97777 23.8592 4.19361 24.8523 3.78015 25.8539C3.54296 26.4275 3.42383 27.0042 3.42383 27.5961C3.42383 28.1881 3.54287 28.7647 3.78015 29.3383C4.01734 29.9105 4.37285 30.4787 4.8465 31.0332C5.79391 32.1447 7.21577 33.1912 9.00986 34.0784C12.598 35.858 17.6562 36.9892 23.2483 36.987C26.9189 36.987 30.358 36.5027 33.3024 35.6636C36.2483 34.8268 38.6999 33.6307 40.3889 32.2515C41.5178 31.3321 42.3035 30.3391 42.7155 29.3382ZM29.9446 29.6457C29.6845 30.1155 29.2703 30.516 28.7066 30.8478C28.1307 31.1865 27.4098 31.4413 26.5448 31.6107C26.1637 31.6854 25.7618 31.7357 25.3533 31.777L25.5196 33.8007H22.2869L22.2647 31.8167C21.3864 31.7625 20.5499 31.6595 19.7688 31.4993C18.5877 31.2568 17.1338 30.3078 17.1338 30.3078C17.0091 30.2521 16.9335 30.1553 16.9286 30.0485C16.9233 29.9418 16.985 29.835 17.101 29.7601L18.6522 28.7365C18.8143 28.6297 19.0542 28.6106 19.2342 28.6884C19.2342 28.6884 20.2857 29.3452 21.1107 29.5054C21.9422 29.664 22.7732 29.7449 23.599 29.7449C24.6426 29.7434 25.4957 29.6122 26.1498 29.3528C26.7981 29.0934 27.0815 28.7013 27.0121 28.1766C26.9637 27.8081 26.768 27.5237 26.4228 27.3168C26.0838 27.1116 25.5361 26.9859 24.782 26.9309L22.3193 26.7951C20.87 26.702 19.7692 26.4389 19.0232 26.0155C18.2905 25.5982 17.9756 24.985 18.0587 24.1932C18.1029 23.769 18.2795 23.3998 18.5846 23.0811C18.8832 22.7691 19.2726 22.5089 19.749 22.3C20.2224 22.094 20.7616 21.9384 21.3716 21.8362C21.6232 21.7934 21.888 21.766 22.1571 21.7393L22.1469 20.7874L24.4498 20.7813L24.5268 21.7156C25.0833 21.7446 25.6157 21.795 26.1168 21.8729C26.9746 22.0017 27.9289 22.4037 27.9289 22.4037C28.0471 22.4388 28.1355 22.5006 28.1683 22.5739C28.2011 22.6494 28.1744 22.7226 28.0947 22.776L27.0493 23.4838C26.9357 23.5601 26.745 23.5815 26.5787 23.5319C26.5787 23.5319 25.8476 23.2352 25.2411 23.1436C24.6389 23.0521 24.0133 23.0078 23.3585 23.0094C22.5053 23.0109 21.8726 23.1093 21.4618 23.3068C21.0446 23.5082 20.8302 23.7706 20.8215 24.1009C20.8127 24.4038 20.9565 24.6387 21.2609 24.805C21.566 24.9728 22.0835 25.0827 22.8193 25.1269L24.8838 25.2367C26.4227 25.3207 27.6245 25.58 28.4968 26.0225C29.3924 26.4748 29.94 27.1552 30.1369 28.0881C30.2604 28.6693 30.1963 29.1895 29.9446 29.6457ZM39.98 28.2948L37.5635 28.9356C37.4993 28.9478 37.4475 29.0004 37.4338 29.0652L36.796 31.481C36.7793 31.5519 36.7182 31.6022 36.6451 31.6022C36.5718 31.6022 36.5093 31.5519 36.4925 31.481L35.8548 29.0652C35.8395 29.0003 35.7892 28.9477 35.7252 28.9356L33.3086 28.2948C33.2369 28.2802 33.1865 28.217 33.1865 28.1453C33.1865 28.072 33.2369 28.0095 33.3086 27.995L35.7252 27.3549C35.7892 27.3389 35.8395 27.2909 35.8548 27.2268L36.4925 24.8088C36.5093 24.7371 36.5718 24.6875 36.6451 24.6875C36.7182 24.6875 36.7793 24.7371 36.796 24.8088L37.4338 27.2268C37.4475 27.2909 37.4994 27.3389 37.5635 27.3549L39.98 27.995C40.0502 28.0095 40.1021 28.072 40.1021 28.1453C40.1021 28.217 40.0502 28.2802 39.98 28.2948Z" fill="#73C1C3"/>
</svg>
