

<svg width="121" height="121" viewBox="0 0 121 121"   xmlns="http://www.w3.org/2000/svg">
<path d="M76.4596 20.1612L76.4593 20.1626L53.7719 103.35C53.7719 103.35 53.7718 103.35 53.7718 103.35C53.4386 104.574 52.6331 105.615 51.5322 106.245C50.4312 106.875 49.1251 107.042 47.9011 106.709C46.6771 106.376 45.6355 105.57 45.0055 104.469C44.3755 103.368 44.2087 102.062 44.5417 100.838L44.5419 100.837L67.2294 17.6499L67.2295 17.6497C67.5634 16.4264 68.3696 15.386 69.4707 14.7571C70.5715 14.1284 71.877 13.9626 73.1 14.2962L76.4596 20.1612ZM76.4596 20.1612C76.7914 18.9379 76.6238 17.633 75.9938 16.5333C75.3639 15.4335 74.3231 14.6289 73.1001 14.2962L76.4596 20.1612ZM83.5906 30.6516L83.5897 30.6525C82.6943 31.549 82.1914 32.7642 82.1914 34.0313C82.1914 35.2983 82.6943 36.5135 83.5897 37.41L83.5901 37.4104L106.68 60.5L83.6019 83.5778C83.1385 84.013 82.7665 84.5363 82.5077 85.1171C82.2463 85.7036 82.1058 86.3368 82.0945 86.9787C82.0832 87.6207 82.2013 88.2584 82.4417 88.8537C82.6822 89.4491 83.0401 89.9899 83.4942 90.4439C83.9482 90.8979 84.489 91.2559 85.0843 91.4963C85.6797 91.7368 86.3174 91.8549 86.9594 91.8436C87.6013 91.8323 88.2345 91.6917 88.821 91.4304C89.4017 91.1716 89.925 90.7997 90.3602 90.3363L116.817 63.8792L116.818 63.8788C117.713 62.9823 118.216 61.767 118.216 60.5C118.216 59.233 117.713 58.0177 116.818 57.1213L116.817 57.1208L90.3485 30.6521L90.3481 30.6516C89.4516 29.7562 88.2364 29.2533 86.9693 29.2533C85.7023 29.2533 84.4871 29.7562 83.5906 30.6516ZM37.4115 30.6525L37.4106 30.6516C36.5141 29.7563 35.2989 29.2533 34.0318 29.2533C32.7648 29.2533 31.5496 29.7563 30.6531 30.6516L30.6526 30.6521L4.18389 57.1208L4.18345 57.1213C3.28808 58.0177 2.78516 59.233 2.78516 60.5C2.78516 61.767 3.28808 62.9823 4.18345 63.8788L4.18389 63.8792L30.641 90.3363C31.0762 90.7997 31.5994 91.1716 32.1802 91.4304C32.7667 91.6917 33.3998 91.8323 34.0418 91.8436C34.6838 91.8549 35.3215 91.7368 35.9168 91.4963C36.5122 91.2559 37.053 90.8979 37.507 90.4439C37.961 89.9899 38.3189 89.4491 38.5594 88.8537C38.7999 88.2584 38.918 87.6207 38.9067 86.9787C38.8953 86.3368 38.7548 85.7036 38.4935 85.1171C38.2347 84.5363 37.8627 84.013 37.3992 83.5778L14.3215 60.5L37.411 37.4104L37.4115 37.41C38.3068 36.5135 38.8097 35.2983 38.8097 34.0313C38.8097 32.7642 38.3068 31.549 37.4115 30.6525Z" fill="#73C1C3"  stroke="#73C1C3" stroke-width="2"/>
</svg>
