<svg width="134" height="102" viewBox="0 0 134 102" fill="none" xmlns="http://www.w3.org/2000/svg">
<g clip-path="url(#clip0_540_96)">
<path fill-rule="evenodd" clip-rule="evenodd" d="M3.64225 0H130.358C132.364 0 134 1.50147 134 3.34328V80.3988C134 82.2406 132.364 83.7421 130.358 83.7421H3.64225C1.63574 83.7421 0 82.2406 0 80.3988V3.34328C0 1.50147 1.63574 0 3.64225 0ZM89.0934 67.7965L71.5801 58.0569V51.8809L89.0934 42.1413V49.4785L78.4502 54.9839L89.0934 60.4893V67.7965ZM99.9657 67.7965L117.479 58.0569V51.8809L99.9657 42.1413V49.4785L110.609 54.9839L99.9657 60.4893V67.7965ZM42.1367 44.0232L46.3133 47.8569C47.4147 48.8679 47.4147 50.5195 46.3133 51.5205L42.9546 54.6035C43.8815 56.1951 44.5903 57.9068 45.0374 59.7085H49.3885C50.937 59.7085 52.2129 60.8797 52.2129 62.3011V67.7164C52.2129 69.1378 50.937 70.3089 49.3885 70.3089H44.634C44.2087 71.5902 43.6634 72.8114 42.9873 73.9725H125.331C127.097 73.9725 128.548 72.6412 128.548 71.0196V8.19804C128.548 6.57645 127.108 5.24514 125.331 5.24514H8.68034C6.90283 5.24514 5.45247 6.57645 5.46338 8.19804V42.842C6.56478 42.0512 8.18962 42.1113 9.19287 43.0522L12.5516 46.1352C14.2855 45.2844 16.1502 44.6338 18.1131 44.2234V40.2294C18.1131 38.808 19.389 37.6469 20.9375 37.6469H26.8371C28.3856 37.6469 29.6615 38.8181 29.6615 40.2395V44.5937C31.5807 45.1342 33.4019 45.895 35.0594 46.8559L38.1346 44.0232C39.2469 43.0122 41.0353 43.0122 42.1367 44.0232ZM23.1403 52.3513C30.3376 52.3513 36.1717 57.7066 36.1717 64.3231C36.1717 68.2869 34.078 71.8004 30.8392 73.9725H15.4414C12.2026 71.8004 10.1089 68.2869 10.1089 64.3231C10.1089 57.7066 15.943 52.3513 23.1403 52.3513ZM14.8853 24.2738H23.2494C23.8927 24.2738 24.4162 24.7743 24.4162 25.3448V27.527C24.4162 28.1076 23.8709 28.598 23.2494 28.598H14.8853C14.2528 28.598 13.7184 28.1176 13.7184 27.527V25.3448C13.7075 24.7543 14.231 24.2738 14.8853 24.2738ZM28.7345 13.1329H61.1004C61.7438 13.1329 62.2673 13.6234 62.2673 14.2039V16.3861C62.2673 16.9766 61.7329 17.4571 61.1004 17.4571H28.7345C28.0911 17.4571 27.5677 16.9766 27.5677 16.3861V14.2039C27.5677 13.6133 28.0911 13.1329 28.7345 13.1329ZM14.8853 13.1329H23.2494C23.8927 13.1329 24.4162 13.6133 24.4162 14.2039V16.3861C24.4162 16.9766 23.8927 17.4571 23.2494 17.4571H14.8853C14.2419 17.4571 13.7184 16.9766 13.7184 16.3861V14.2039C13.7075 13.6133 14.231 13.1329 14.8853 13.1329ZM41.8314 24.2738H95.5383C96.1816 24.2738 96.7051 24.7743 96.7051 25.3448V27.527C96.7051 28.0975 96.1598 28.598 95.5383 28.598H41.8314C41.1989 28.598 40.6646 28.1176 40.6646 27.527V25.3448C40.6646 24.7543 41.188 24.2738 41.8314 24.2738ZM28.5819 24.2738H36.946C37.5894 24.2738 38.1128 24.7743 38.1128 25.3448V27.527C38.1128 28.1076 37.5675 28.598 36.946 28.598H28.5819C27.9494 28.598 27.415 28.1176 27.415 27.527V25.3448C27.4041 24.7543 27.9385 24.2738 28.5819 24.2738ZM50.479 88.3566H83.521C83.6082 93.6018 85.9637 98.2964 92.3431 102H41.6569C46.7604 98.6067 50.5008 94.4826 50.479 88.3566Z" fill="black"/>
</g>
<defs>
<clipPath id="clip0_540_96">
<rect width="134" height="102" fill="white"/>
</clipPath>
</defs>
</svg>
