<svg width="102" height="102" viewBox="0 0 102 102" fill="none" xmlns="http://www.w3.org/2000/svg">
<g clip-path="url(#clip0_447_61)">
<path d="M86.4128 19.8685L51.8896 54.3916L59.6471 62.149L94.1702 27.6259L86.4128 19.8685Z" fill="black"/>
<path d="M79.6484 4.53721L97.4622 22.3512L102 0L79.6484 4.53721Z" fill="black"/>
<path d="M45.99 15.5317L17.415 44.1065L27.1714 46.467L55.7459 17.8923L45.99 15.5317Z" fill="black"/>
<path d="M74.3717 7.82894L39.8486 42.3521L47.6061 50.1095L82.1292 15.5864L74.3717 7.82894Z" fill="black"/>
<path d="M55.3644 66.4321L35.5678 46.6357L34.0679 48.1357H34.0681L30.5615 51.6423C29.1691 53.0345 28.4023 54.8856 28.4023 56.8547C28.4023 58.8237 29.1691 60.6749 30.5615 62.067L39.9327 71.4385C41.3251 72.8308 43.1762 73.5976 45.1453 73.5976C47.1144 73.5976 48.9655 72.8308 50.3578 71.4385L53.8643 67.932L55.3644 66.4321Z" fill="black"/>
<path d="M84.1083 46.2544L55.5332 74.8295L57.8939 84.5857L86.4689 56.0107L84.1083 46.2544Z" fill="black"/>
<path d="M32.8148 69.1855C25.6744 62.0451 14.0555 62.0449 6.91474 69.1855C-3.58011 79.6801 0.936183 97.9128 1.13361 98.6838L1.57866 100.421L3.31645 100.866C3.67783 100.959 7.87378 102 13.3123 102C19.4773 102 27.2386 100.661 32.8148 95.0853C39.9554 87.9447 39.9554 76.326 32.8148 69.1855ZM24.963 87.2335C21.9416 90.2548 16.9669 90.8889 13.3258 90.8889L11.1183 90.8764L11.1047 88.883C11.0589 82.1646 13.0708 78.7328 14.7669 77.0369C16.1288 75.6752 17.9391 74.9253 19.8648 74.9253C21.7904 74.9253 23.6011 75.6754 24.963 77.0371C26.323 78.3971 27.0721 80.2078 27.0721 82.1351C27.0721 84.0627 26.323 85.8734 24.963 87.2335Z" fill="black"/>
</g>
<defs>
<clipPath id="clip0_447_61">
<rect width="102" height="102" fill="white"/>
</clipPath>
</defs>
</svg>
